<svg width="47" height="27" viewBox="0 0 47 27" fill="none" xmlns="http://www.w3.org/2000/svg">
<path d="M4 1H43C43 1 46 1 46 2.46484V3.92969C46 3.92969 46 5.39453 43 5.39453H4C4 5.39453 1 5.39453 1 3.92969V2.46484C1 2.46484 1 1 4 1Z" fill="#9D0932" stroke="#9D0932" stroke-linecap="round" stroke-linejoin="round"/>
<path d="M4 11.5469H43C43 11.5469 46 11.5469 46 13.0118V14.4766C46 14.4766 46 15.9414 43 15.9414H4C4 15.9414 1 15.9414 1 14.4766V13.0118C1 13.0118 1 11.5469 4 11.5469Z" fill="#9D0932" stroke="#9D0932" stroke-linecap="round" stroke-linejoin="round"/>
<path d="M4 22H43C43 22 46 22 46 23.4648V24.9297C46 24.9297 46 26.3945 43 26.3945H4C4 26.3945 1 26.3945 1 24.9297V23.4648C1 23.4648 1 22 4 22Z" fill="#9D0932" stroke="#9D0932" stroke-linecap="round" stroke-linejoin="round"/>
</svg>
