<svg width="30" height="35" viewBox="0 0 30 35" fill="none" xmlns="http://www.w3.org/2000/svg">
<path fill-rule="evenodd" clip-rule="evenodd" d="M23.125 8.12505C23.125 3.6377 19.4873 0 15 0C10.5126 0 6.87495 3.6377 6.87495 8.12505V15C6.87495 19.4873 10.5126 23.125 15 23.125C19.4873 23.125 23.125 19.4873 23.125 15V8.12505ZM13.125 30.509V33.125C13.125 34.1605 13.9645 35 15 35C16.0355 35 16.875 34.1605 16.875 33.125V30.509C24.2743 29.5863 30 23.2743 30 15.625C30 14.5895 29.1605 13.75 28.125 13.75C27.0895 13.75 26.25 14.5895 26.25 15.625C26.25 21.8382 21.2132 26.875 15 26.875C8.78683 26.875 3.74998 21.8382 3.74998 15.625C3.74998 14.5895 2.91053 13.75 1.87499 13.75C0.839461 13.75 0 14.5895 0 15.625C0 23.2743 5.72571 29.5863 13.125 30.509Z" fill="#9D0932"/>
</svg>
