<svg width="32" height="32" viewBox="0 0 32 32" fill="none" xmlns="http://www.w3.org/2000/svg">
<path d="M31.4466 0.30529C31.2346 0.136315 30.9782 0.0325081 30.7085 0.00647302C30.4387 -0.019562 30.1672 0.0332943 29.9268 0.158625L1.07899 15.5318C0.734094 15.7177 0.449587 15.9984 0.259067 16.3409C0.0685477 16.6833 -0.0200275 17.0731 0.00380116 17.4642C0.0276298 17.8553 0.162867 18.2315 0.393544 18.5482C0.62422 18.865 0.940702 19.1091 1.30562 19.2518L5.65146 21.0917C5.63116 21.2019 5.63116 21.3149 5.65146 21.4251L8.98416 30.4116C9.12133 30.7843 9.34787 31.1177 9.6439 31.3824C9.93994 31.6471 10.2964 31.8351 10.682 31.9299C11.0676 32.0247 11.4706 32.0233 11.8556 31.926C12.2406 31.8287 12.5958 31.6383 12.8901 31.3716L17.4226 26.3583C17.4712 26.3072 17.5343 26.2722 17.6033 26.2579C17.6724 26.2436 17.7442 26.2507 17.8091 26.2783L22.0083 28.065C22.2818 28.1839 22.5767 28.2453 22.8749 28.2453C23.173 28.2453 23.4679 28.1839 23.7414 28.065C24.0123 27.9376 24.2519 27.7521 24.4432 27.5217C24.6344 27.2912 24.7725 27.0215 24.8478 26.7317L31.9665 1.73194C32.0352 1.46948 32.0223 1.19228 31.9294 0.93736C31.8365 0.682441 31.6681 0.461936 31.4466 0.30529ZM7.75772 21.3984L20.6753 10.6652C20.704 10.6336 20.739 10.6084 20.778 10.5912C20.817 10.574 20.8592 10.5651 20.9019 10.5651C20.9445 10.5651 20.9867 10.574 21.0258 10.5912C21.0648 10.6084 21.0998 10.6336 21.1285 10.6652C21.1597 10.6927 21.1847 10.7266 21.2018 10.7645C21.219 10.8024 21.2278 10.8436 21.2278 10.8852C21.2278 10.9268 21.219 10.9679 21.2018 11.0059C21.1847 11.0438 21.1597 11.0776 21.1285 11.1052L11.5037 22.9184C11.3932 23.0527 11.3197 23.2136 11.2904 23.385L10.4505 28.6517L7.75772 21.3984Z" fill="#9D0932"/>
</svg>
