<svg width="40" height="40" viewBox="0 0 40 40" fill="none" xmlns="http://www.w3.org/2000/svg">
<circle cx="20" cy="20" r="20" fill="#CFB0B0"/>
<path d="M19.1953 24.5312C18.3516 24.9688 17.3021 25.1875 16.0469 25.1875C14.4219 25.1875 13.1198 24.6745 12.1406 23.6484C11.1615 22.6224 10.6719 21.276 10.6719 19.6094C10.6719 17.8177 11.2214 16.3698 12.3203 15.2656C13.4245 14.1615 14.8177 13.6094 16.5 13.6094C17.5833 13.6094 18.4818 13.763 19.1953 14.0703V15.9141C18.4401 15.4661 17.6068 15.2422 16.6953 15.2422C15.4818 15.2422 14.4974 15.6302 13.7422 16.4062C12.9922 17.1823 12.6172 18.2188 12.6172 19.5156C12.6172 20.75 12.9688 21.7344 13.6719 22.4688C14.375 23.1979 15.2995 23.5625 16.4453 23.5625C17.5026 23.5625 18.4193 23.3125 19.1953 22.8125V24.5312ZM28.0666 25H26.2541V20.625C26.2541 19.0417 25.7254 18.25 24.6681 18.25C24.1369 18.25 23.689 18.4792 23.3244 18.9375C22.9598 19.3958 22.7775 19.9818 22.7775 20.6953V25H20.9572V13.1562H22.7775V18.3281H22.8088C23.4129 17.3177 24.2775 16.8125 25.4025 16.8125C27.1785 16.8125 28.0666 17.8984 28.0666 20.0703V25Z" fill="#9D0932"/>
</svg>
