<svg width="25" height="25" viewBox="0 0 25 25" fill="none" xmlns="http://www.w3.org/2000/svg">
<path d="M20.3 1H4.19998C2.39998 1 1 2.40007 1 4.20007V20.3C1 22.1 2.39998 23.5 4.19998 23.5H20.3C22.1 23.5 23.5 22.1 23.5 20.3V4.20007C23.5 2.50007 22.1 1 20.3 1Z" stroke="url(#paint0_linear_131_47)" stroke-width="2" stroke-miterlimit="10" stroke-linecap="round" stroke-linejoin="round"/>
<path d="M16.8001 14.5C18.0001 14.5 19.0001 15.5001 19.0001 16.7001C19.0001 17.9001 18.0001 18.9 16.8001 18.9C15.6001 18.9 14.6001 17.9001 14.6001 16.7001V7.70007C14.6001 6.50007 15.6001 5.5 16.8001 5.5C18.0001 5.5 19.0001 6.50007 19.0001 7.70007C19.0001 8.90007 18.0001 9.90002 16.8001 9.90002H7.80008C6.60008 9.90002 5.6001 8.90007 5.6001 7.70007C5.6001 6.50007 6.60008 5.5 7.80008 5.5C9.00008 5.5 10.0001 6.50007 10.0001 7.70007V16.7001C10.0001 17.9001 9.00008 18.9 7.80008 18.9C6.60008 18.9 5.6001 17.9001 5.6001 16.7001C5.6001 15.5001 6.60008 14.5 7.80008 14.5H16.8001Z" stroke="url(#paint1_linear_131_47)" stroke-width="2" stroke-miterlimit="10" stroke-linecap="round" stroke-linejoin="round"/>
<defs>
<linearGradient id="paint0_linear_131_47" x1="12.25" y1="1" x2="12.25" y2="23.5" gradientUnits="userSpaceOnUse">
<stop stop-color="#370312"/>
<stop offset="1" stop-color="#9D0932"/>
</linearGradient>
<linearGradient id="paint1_linear_131_47" x1="12.3001" y1="5.5" x2="12.3001" y2="18.9" gradientUnits="userSpaceOnUse">
<stop stop-color="#370312"/>
<stop offset="1" stop-color="#9D0932"/>
</linearGradient>
</defs>
</svg>
