<svg width="24" height="24" viewBox="0 0 24 24" fill="none" xmlns="http://www.w3.org/2000/svg">
<path fill-rule="evenodd" clip-rule="evenodd" d="M19.9094 2.49917C20.5191 3.05496 21 3.79911 21 4.70571V8.35714C21 8.94886 20.5203 9.42857 19.9286 9.42857C19.3368 9.42857 18.8571 8.94886 18.8571 8.35714V7.6638C18.4577 7.89237 18.018 8.09577 17.5524 8.27527C15.6947 8.99131 13.201 9.41143 10.5 9.41143C7.79902 9.41143 5.3053 8.99131 3.44763 8.27527C2.98195 8.09577 2.54235 7.89237 2.14286 7.6638V10.5C2.14286 10.597 2.18971 10.8089 2.53406 11.1227C2.87885 11.4369 3.4374 11.7691 4.21834 12.0701C5.77317 12.6694 7.99373 13.0629 10.5 13.0629C10.9798 13.0629 11.4503 13.0484 11.9087 13.0207C12.4994 12.985 13.0072 13.4348 13.0429 14.0255C13.0786 14.6161 12.6288 15.1239 12.0381 15.1597C11.5363 15.19 11.0227 15.2057 10.5 15.2057C7.79902 15.2057 5.3053 14.7856 3.44763 14.0696C2.98195 13.8901 2.54235 13.6867 2.14286 13.4581V16.2943C2.14286 16.3912 2.18971 16.6032 2.53406 16.917C2.87885 17.2311 3.4374 17.5634 4.21834 17.8644C5.77317 18.4637 7.99373 18.8571 10.5 18.8571C11.0917 18.8571 11.5714 19.3368 11.5714 19.9286C11.5714 20.5203 11.0917 21 10.5 21C7.79902 21 5.3053 20.5798 3.44763 19.8638C2.52235 19.5072 1.70013 19.0562 1.09069 18.5007C0.480818 17.945 0 17.2008 0 16.2943V4.70397C0.000615845 3.79815 0.481209 3.0546 1.09069 2.49917C1.70013 1.94378 2.52235 1.49281 3.44763 1.13615C5.3053 0.420113 7.79902 0 10.5 0C13.201 0 15.6947 0.420113 17.5524 1.13615C18.4776 1.49281 19.2999 1.94378 19.9094 2.49917ZM15 16.3397V15C15 12.8698 16.7269 11.1429 18.8571 11.1429C20.9873 11.1429 22.7143 12.8698 22.7143 15V16.3397C23.4537 16.53 24 17.2011 24 18V22.2857C24 23.2325 23.2325 24 22.2857 24H15.4286C14.4818 24 13.7143 23.2325 13.7143 22.2857V18C13.7143 17.2011 14.2606 16.53 15 16.3397ZM20.5714 16.2857H17.1429V15C17.1429 14.0532 17.9103 13.2857 18.8571 13.2857C19.8039 13.2857 20.5714 14.0532 20.5714 15V16.2857Z" fill="url(#paint0_linear_82_244)"/>
<defs>
<linearGradient id="paint0_linear_82_244" x1="24" y1="12" x2="0" y2="12" gradientUnits="userSpaceOnUse">
<stop stop-color="#9D0932"/>
<stop offset="1" stop-color="#370312"/>
</linearGradient>
</defs>
</svg>
