<svg width="25" height="25" viewBox="0 0 25 25" fill="none" xmlns="http://www.w3.org/2000/svg">
<path d="M12.25 1C8.36963 1.0182 4.53654 1.85297 1 3.45C1 16.65 8.34 21.54 12.25 23.5C16.16 21.5 23.5 16.65 23.5 3.5C19.9672 1.88575 16.134 1.03391 12.25 1Z" stroke="url(#paint0_linear_670_166)" stroke-width="2" stroke-linecap="round" stroke-linejoin="round"/>
<path d="M6.2998 10.63L11.9298 17.04L19.3098 6.95998C18.9237 6.75021 18.4842 6.65918 18.0466 6.69832C17.6089 6.73746 17.1925 6.90503 16.8498 7.17998C15.9998 8.02998 11.7898 12.38 11.7898 12.38L10.0998 10.57C8.7098 9.07998 6.2998 10.63 6.2998 10.63Z" stroke="url(#paint1_linear_670_166)" stroke-width="1.5" stroke-linecap="round" stroke-linejoin="round"/>
<defs>
<linearGradient id="paint0_linear_670_166" x1="12.25" y1="1" x2="12.25" y2="23.5" gradientUnits="userSpaceOnUse">
<stop stop-color="#3F0415"/>
<stop offset="1" stop-color="#A50B36"/>
</linearGradient>
<linearGradient id="paint1_linear_670_166" x1="12.8048" y1="6.68945" x2="12.8048" y2="17.04" gradientUnits="userSpaceOnUse">
<stop stop-color="#3F0415"/>
<stop offset="1" stop-color="#A50B36"/>
</linearGradient>
</defs>
</svg>
