<svg width="190" height="101" viewBox="0 0 190 101" fill="none" xmlns="http://www.w3.org/2000/svg">
<g clip-path="url(#clip0_1360_212)">
<path d="M0 0H189.838C190.06 0.331187 189.999 0.811024 189.999 1.19176L190 73.2187L190.001 93.1041L190 98.3777C189.999 99.1027 190.103 99.99 189.974 100.694C189.954 100.804 189.901 100.906 189.838 101H0V0Z" fill="url(#paint0_linear_1360_212)"/>
<path d="M70.2421 88.6075C70.2301 88.0806 70.1678 87.5125 70.3238 87.002L70.4321 86.9331C70.62 86.9928 70.6747 86.992 70.7657 87.1734C71.0994 87.8395 70.8688 89.3387 70.8527 90.1032C70.4643 89.7341 70.9827 88.3006 70.6451 87.7448L70.4755 87.814C70.3887 88.0771 70.312 88.3401 70.2421 88.6075Z" fill="#2A283C"/>
<path d="M82.8794 90.1216C83.1072 90.5512 82.8418 90.9764 82.9165 91.4472C82.79 91.7243 82.7397 91.8505 82.4367 91.9978L82.1838 91.7935C82.1115 91.4174 81.9072 90.9483 82.0421 90.5924C82.1183 90.7844 82.1658 90.9694 82.3545 91.0895C82.6274 90.9212 82.7546 90.4162 82.8794 90.1216Z" fill="#2A283C"/>
<path d="M115.965 39.8775C116.436 39.8763 117.038 39.8033 117.482 39.9549C117.585 39.9902 117.683 39.9965 117.791 40.0061L117.766 40.1002C116.705 40.1344 115.681 40.4803 114.63 40.4704C114.211 40.4665 113.955 40.188 113.508 40.1861L113.416 40.1852C113.344 40.1846 113.273 40.186 113.202 40.1893L113.458 40.2909L113.497 40.4398C113.359 40.5791 113.317 40.5678 113.125 40.6011C113.136 40.4932 113.144 40.4477 113.218 40.3643L113.11 40.3477L113.218 40.3503L113.181 40.4141C113.165 40.4109 113.15 40.4075 113.133 40.4046C112.947 40.3721 112.849 40.3923 112.679 40.4645L112.538 40.3864L112.52 40.2656L112.737 40.1939L112.407 40.1725L112.375 40.073C112.908 39.9909 113.592 39.9514 114.127 40.0261L114.205 39.9712C114.79 39.9553 115.387 39.9637 115.965 39.8775Z" fill="#E1EDF5"/>
<path d="M82.8789 90.1215C83.1699 89.1431 83.634 87.9069 84.1849 87.0365C84.3977 86.9978 84.5109 86.9949 84.7089 87.0829C84.7684 87.4767 83.2091 90.8106 82.916 91.4471C82.8413 90.9763 83.1068 90.5511 82.8789 90.1215Z" fill="#2A283C"/>
<path d="M75.2346 86.9194C75.4467 86.9381 75.6218 86.9684 75.8207 87.0414C76.0845 87.8418 75.8982 90.8596 75.8907 91.8994C75.6745 91.8924 75.4996 91.8687 75.2946 91.8021C75.0516 90.7886 75.2294 88.1198 75.2346 86.9194Z" fill="#2A283C"/>
<path d="M82.4363 91.9976L82.0126 91.8661C81.9073 91.7714 81.8101 91.6662 81.7505 91.54C81.4067 90.8123 79.752 87.5676 79.9841 86.9838L80.1351 86.9575C81.0265 87.4387 81.6919 89.6646 82.0418 90.5922C81.9069 90.9482 82.1112 91.4172 82.1834 91.7933L82.4363 91.9976Z" fill="#2A283C"/>
<path d="M113.921 87.1024C114.188 87.0401 114.466 87.0033 114.719 87.1047C114.825 87.7719 114.889 91.3621 114.603 91.8391C114.464 91.911 114.34 91.8917 114.185 91.8917C113.64 91.1885 114.359 88.1489 113.921 87.1024Z" fill="#2A283C"/>
<path d="M121.558 91.7496C122.09 91.6146 123.129 92.0171 123.727 92.0942C123.775 92.1696 123.824 92.2546 123.848 92.3406C123.987 92.8429 124.043 94.3799 123.792 94.8454L123.723 94.905C123.146 94.4386 121.802 92.4686 121.558 91.7496Z" fill="#E1EDF5"/>
<path d="M100.187 87.5593C100.468 87.5382 100.498 87.5519 100.743 87.685C101.031 88.026 100.921 88.6397 101.231 88.8879C101.335 88.8887 101.363 88.8738 101.453 88.9299C101.158 89.4586 100.819 89.598 100.257 89.8321C100.774 90.4239 101.6 91.1595 101.915 91.8635L101.863 91.9775C101.444 91.9766 101.166 91.8407 100.875 91.5698C100.385 91.1139 99.9676 90.4537 99.5343 89.9373C98.9471 89.9189 98.3598 89.8935 97.7726 89.9005L97.6074 89.6383L97.6585 89.4761L97.9396 89.3999C98.5296 89.4016 99.1484 89.4323 99.7347 89.3797C100.08 89.349 100.496 89.2438 100.711 88.9668C100.855 88.78 100.877 88.5451 100.843 88.3224C100.784 87.9305 100.505 87.7674 100.187 87.5593Z" fill="#2A283C"/>
<path d="M106.919 40.3967C109.066 39.993 111.31 39.8293 113.485 39.5884C115.275 39.3905 117.11 39.1019 118.906 39.0176C118.969 39.2114 119.037 39.3965 119.124 39.5819C118.776 39.6332 118.465 39.2796 118.116 39.3113C117.367 39.3793 116.759 39.8758 115.965 39.8777C115.387 39.9639 114.79 39.9555 114.205 39.9715L114.369 39.8669C113.62 39.812 112.812 39.8514 112.073 39.9783L112.007 40.1163C111.511 40.1567 111.013 40.07 110.495 40.1166C109.963 40.1644 109.459 40.3583 108.945 40.3681L109.038 40.5161L108.966 40.5952C108.286 40.537 107.633 40.5026 106.95 40.5312L106.919 40.3967Z" fill="#B2BAC9"/>
<path d="M97.7958 87.5553C98.5909 87.537 99.3915 87.5554 100.187 87.5594C100.504 87.7675 100.783 87.9306 100.842 88.3225C100.876 88.5452 100.855 88.7801 100.71 88.9669C100.496 89.2439 100.079 89.3491 99.7339 89.3798C99.1475 89.4324 98.5287 89.4018 97.9387 89.4L97.8385 89.3255C97.6965 88.81 97.7884 88.0945 97.7958 87.5553Z" fill="#E1EDF5"/>
<path d="M97.1239 86.9999C98.1908 86.9859 99.46 86.858 100.491 87.1408C100.887 87.2496 101.289 87.4465 101.477 87.813C101.655 88.1611 101.595 88.5837 101.453 88.93C101.363 88.8739 101.335 88.8888 101.231 88.8879C100.921 88.6398 101.031 88.0261 100.743 87.685C100.498 87.5519 100.467 87.5382 100.187 87.5593C99.3923 87.5553 98.5916 87.5369 97.7965 87.5552C97.7891 88.0944 97.6973 88.8099 97.8392 89.3254L97.9394 89.3999L97.6583 89.4762L97.6073 89.6384L97.7724 89.9005C97.7873 90.4178 97.9339 91.3962 97.6722 91.8249C97.47 91.9109 97.4589 91.9433 97.239 91.8767C96.9115 91.2735 97.1193 87.8551 97.1239 86.9999Z" fill="#2A283C"/>
<path d="M118.724 87.0157C119.545 86.9554 122.989 86.8482 123.507 87.1129C123.615 87.2791 123.644 87.277 123.595 87.4756C123.057 87.6814 122.034 87.559 121.434 87.5577C121.482 87.6322 121.517 87.6849 121.536 87.7708C121.643 88.26 121.659 89.4989 121.388 89.9092C121.397 89.9241 121.408 89.9381 121.417 89.9539C121.632 90.3195 121.628 91.1366 121.498 91.5338C121.427 91.7494 121.395 91.8792 121.176 91.9888C120.36 91.2532 121.309 88.516 120.718 87.5735C120.228 87.5596 119.303 87.7445 118.887 87.4833C118.764 87.4063 118.753 87.1548 118.724 87.0157Z" fill="#2A283C"/>
<path d="M113.455 70.3882C113.867 70.557 114.643 71.5575 114.802 71.9638C114.828 72.0301 114.825 72.0416 114.829 72.1029L114.19 71.5193L114.195 71.5234C114.193 71.5301 114.188 71.5365 114.186 71.5436C114.105 71.8633 114.183 72.2267 114.227 72.5471L114.21 72.5224C114.31 73.0595 114.487 73.6824 114.445 74.2264C114.411 74.664 114.271 75.0843 114.279 75.527C114.301 76.6641 114.402 77.8091 114.451 78.947L114.311 78.9888C114.009 78.6787 113.788 78.3228 113.795 77.8848C113.796 77.8092 113.815 77.7451 113.836 77.673L113.811 77.9986L113.834 77.6742C113.864 77.9291 113.745 78.1641 113.764 78.4176C113.796 78.8261 113.936 79.2423 113.989 79.6531C114.175 79.7969 114.214 79.7942 114.455 79.7654C114.785 79.7259 115.208 79.4857 115.514 79.6804C115.274 79.7472 115.062 79.8855 114.825 79.9631C114.601 80.0366 114.361 80.0322 114.146 79.9309C113.013 79.396 114.028 71.8276 113.455 70.3882Z" fill="#E1EDF5"/>
<path d="M57.7336 86.9351C57.8214 86.9378 57.9099 86.9399 57.9973 86.9479C58.9464 87.0354 58.0105 90.1125 58.7545 90.9367C59.0092 91.219 59.379 91.3742 59.7678 91.3934C60.1882 91.4145 60.6372 91.2821 60.9444 91.0033C61.6898 90.3256 61.3561 88.7299 61.3849 87.8251C61.3956 87.4889 61.4031 87.2039 61.6702 86.9651C61.8708 86.9592 61.8943 86.9486 62.0693 87.0582L62.0967 87.4762C62.1086 88.6615 62.3661 90.55 61.4362 91.4583C61.0198 91.866 60.4355 91.9993 59.8524 91.9931C59.2923 91.987 58.7373 91.8546 58.3397 91.4618C57.3568 90.4913 57.7137 88.1802 57.7336 86.9351Z" fill="#2A283C"/>
<path d="M67.1314 87.7517C67.1394 88.4391 67.3408 91.4489 66.9148 91.8803L66.6004 91.8618C66.4201 91.6207 66.4749 88.6504 66.4779 88.1427C66.4798 87.7964 66.4778 87.1824 66.769 86.9327C66.8694 86.8467 66.9207 86.8712 67.0534 86.8739C67.7395 87.2052 69.6014 89.9935 70.2052 90.7782L70.2424 88.6074C70.3123 88.34 70.389 88.077 70.4759 87.814L70.6455 87.7447C70.9831 88.3005 70.4646 89.734 70.853 90.1031C70.8659 90.5336 71.0153 91.5673 70.708 91.8785C70.6471 91.8785 70.5882 91.8768 70.5283 91.8645C69.8517 91.7268 67.6717 88.4759 67.1314 87.7517Z" fill="#2A283C"/>
<path d="M88.7211 87.0016C89.5446 87.0109 91.9257 86.7825 92.5466 87.1119C92.7153 87.2015 92.7129 87.2585 92.7647 87.4234L92.6473 87.5377C91.5805 87.5777 90.5099 87.5687 89.4425 87.5753L89.4307 89.0913C90.2912 89.115 91.538 88.8836 92.3092 89.2737L92.3336 89.4149C91.7482 89.8024 90.1706 89.6419 89.4563 89.6551C89.3602 90.175 89.4298 90.822 89.4288 91.356C90.208 91.3551 92.577 91.1938 93.1516 91.4945L93.1257 91.6488C92.5428 92.1135 89.6084 91.8908 88.7562 91.889C88.6947 90.2653 88.7349 88.6267 88.7211 87.0016Z" fill="#2A283C"/>
<path d="M106.875 86.9881C107.443 86.9587 108.059 86.8989 108.607 87.07C109.051 87.2082 109.452 87.4997 109.662 87.8983C109.763 88.0885 109.815 88.1482 109.74 88.3603C109.661 88.3919 109.564 88.4331 109.478 88.4366C109.057 88.4498 108.938 87.9912 108.659 87.7563C108.387 87.5269 107.846 87.5042 107.499 87.5178C107.047 87.5354 106.656 87.6176 106.34 87.9456C106.287 88.0587 106.242 88.1578 106.257 88.2841C106.359 89.1582 108.8 89.1231 109.701 89.7894C109.903 89.9385 110.077 90.1383 110.1 90.3882C110.132 90.7293 109.885 91.0887 109.663 91.3421C109.179 91.8936 108.598 92.0049 107.872 92.0689C107.826 92.0724 107.779 92.0742 107.733 92.0733C106.931 92.0698 106.282 91.8664 105.722 91.3149C105.534 91.1308 105.376 90.9406 105.382 90.6723C105.532 90.5153 105.633 90.4592 105.873 90.4426C106.11 90.4259 106.558 91.1825 106.807 91.3342C107.227 91.5911 107.822 91.5315 108.288 91.4368C108.604 91.3728 109.065 91.2281 109.237 90.9502C109.323 90.8117 109.353 90.6811 109.297 90.5241C108.974 89.6132 107.247 89.7535 106.451 89.444C106.048 89.2879 105.723 89.0302 105.572 88.6348C105.468 88.3638 105.499 88.0824 105.635 87.8255C105.896 87.3329 106.354 87.163 106.875 86.9881Z" fill="#2A283C"/>
<path d="M127.352 65.0567C127.135 64.9182 126.887 64.7995 126.691 64.6356C126.287 64.2964 125.965 63.656 125.938 63.1452C125.916 62.7463 126.056 62.3891 126.348 62.0994C126.762 61.6862 127.38 61.462 127.978 61.4634C128.5 61.4646 129.062 61.6182 129.43 61.9836C129.65 62.2014 129.799 62.4571 129.791 62.7639C129.943 63.2234 129.912 63.655 129.668 64.0844C129.418 64.5255 128.87 64.8622 128.368 64.9934C128.035 65.0803 127.694 65.068 127.352 65.0567Z" fill="#2A283C"/>
<path d="M96.7883 44.3533C97.2838 44.17 98.4416 43.0884 98.821 42.6819C99.117 42.3659 99.3804 41.9373 99.7367 41.689L99.836 41.7799L99.8174 41.8971C98.8322 43.1218 97.679 45.2633 96.6779 46.2708C96.7596 46.0043 97.0091 45.4588 96.9034 45.2012L96.7243 45.09C96.3384 45.3354 95.6667 46.5078 95.5767 46.9475C95.5625 47.0186 95.5501 47.0899 95.5396 47.1615L95.4431 47.22C95.3967 47.1318 95.3606 47.0603 95.3439 46.9624L95.3429 47.0463C95.1305 47.1738 95.0052 47.2422 94.7492 47.2186C94.6666 47.3172 94.6629 47.3792 94.6369 47.4973C94.5488 47.8959 94.1916 48.1353 93.8446 48.3394C92.9382 48.8735 92.692 49.7401 92.1283 49.986C91.8994 50.0859 91.5996 50.2365 91.4124 50.3956C91.0721 50.6848 90.804 51.2882 90.5345 51.6536C90.2293 52.0673 88.5942 53.8664 88.2111 53.921L88.1151 53.8259C88.1764 53.6282 88.2436 53.5046 88.3858 53.3482L88.0596 53.3849L88.0696 53.2436L88.535 52.8947L88.5201 52.809L88.2427 52.7938C88.3283 52.5754 88.7817 52.2384 88.964 52.0512C90.2307 50.7506 91.5105 49.4997 92.8779 48.2921C93.3808 47.8481 95.111 46.6392 95.3095 46.1258C95.4329 45.8058 95.136 45.4558 95.2168 45.0918C95.2214 45.0737 95.227 45.0558 95.2316 45.0378L95.6714 45.7838C96.0963 45.6565 96.4711 44.7707 96.7401 44.4157L96.7883 44.3533Z" fill="#E1EDF5"/>
<path d="M84.7206 40.6146C84.6994 40.5883 84.7021 40.4929 84.6992 40.4587C85.3405 39.3848 87.2378 36.4032 88.1132 35.6641C89.0304 36.1691 90.6794 36.6509 91.2927 37.3998C89.1238 38.4945 86.9156 39.566 84.7206 40.6146Z" fill="#610C34"/>
<path d="M96.5389 10.7163C96.9768 10.8808 98.2088 12.4256 98.4296 12.8937C98.4472 12.9323 98.4639 12.9717 98.4788 13.0114L98.4101 13.0694C98.398 13.0568 98.3869 13.044 98.3758 13.0314C98.2691 12.9167 98.1772 12.8444 98.039 12.767C97.9861 12.7379 98.0038 12.7553 97.9787 12.715L97.7421 12.6368C97.7022 12.9822 98.9862 15.19 99.2154 15.6816C99.669 16.6565 101.389 20.7649 100.657 21.5486C100.519 21.596 100.379 21.6508 100.237 21.687C99.618 20.4137 99.1523 19.048 98.6467 17.7303L96.1641 11.3005C96.3524 11.1389 96.434 10.9302 96.5389 10.7163Z" fill="#B2BAC9"/>
<path d="M75.6556 69.0371C76.1547 69.1682 76.5063 69.7214 76.7495 70.1258C77.0278 70.5885 77.2708 71.0715 77.5566 71.53C78.1961 72.5562 79.8324 74.4248 79.4456 75.6656C79.4188 75.7513 79.3244 75.8196 79.238 75.8541C78.8275 76.0176 78.3507 75.8356 77.9855 75.653C76.4987 74.9092 75.5356 73.2219 74.9395 71.7718C75.1717 71.768 75.3825 71.7476 75.61 71.7031C75.8186 71.3962 75.6665 69.4818 75.6556 69.0371Z" fill="#E1EDF5"/>
<path d="M93.1322 41.2817L93.2602 41.4234L93.0784 41.5969C93.2166 42.3941 94.9116 44.0477 95.2316 45.0378C95.227 45.0558 95.2214 45.0737 95.2168 45.0918C95.1361 45.4558 95.4329 45.8058 95.3096 46.1258C95.111 46.6392 93.3808 47.8481 92.878 48.2921C91.5105 49.4997 90.2307 50.7506 88.964 52.0512C88.7817 52.2384 88.3284 52.5754 88.2427 52.7938C87.9609 52.8593 87.6471 52.6477 87.3228 52.6707C87.1185 53.0328 87.0565 53.4443 86.9729 53.8428L86.8777 53.8643C86.7071 53.4607 86.9476 52.7544 87.0549 52.3426C87.5 51.6903 88.6737 50.8382 89.302 50.2723C91.0928 48.6599 92.9086 47.0528 94.6286 45.373C94.0599 44.5056 93.2314 42.9322 92.4679 42.2792C92.4596 42.1002 92.5304 41.9145 92.579 41.7419C92.8251 41.6321 92.9587 41.4723 93.1322 41.2817Z" fill="#B2BAC9"/>
<path d="M129.791 62.7637C130.18 63.0088 130.497 63.3058 130.663 63.7283C131.386 64.1168 133.287 66.9373 133.508 67.6865C133.594 67.9764 133.662 68.3445 133.48 68.6141C133.202 69.028 132.417 69.0365 131.966 69.2535C131.488 69.2272 131.025 69.0856 130.695 68.7459C130.424 68.4668 130.177 68.0745 129.849 67.8626L129.705 68.2129C129.702 67.9662 129.669 67.9576 129.496 67.7673L129.528 67.5918C128.892 66.8414 128.187 66.1327 127.519 65.4058C127.512 65.2309 127.459 65.1947 127.352 65.0564C127.694 65.0677 128.035 65.08 128.368 64.9931C128.87 64.862 129.418 64.5252 129.668 64.0841C129.912 63.6547 129.943 63.2232 129.791 62.7637Z" fill="#DAECF6"/>
<path d="M129.791 62.7637C130.18 63.0088 130.497 63.3058 130.663 63.7283C130.419 63.6497 130.314 63.4362 130.16 63.2444C130.072 63.312 130.099 63.2664 130.086 63.357C129.993 63.9818 129.156 65.2255 128.607 65.599C128.455 65.7027 128.412 65.7295 128.227 65.6909C127.984 65.6398 127.762 65.4806 127.519 65.4058C127.512 65.2309 127.459 65.1947 127.352 65.0564C127.694 65.0677 128.035 65.08 128.368 64.9931C128.87 64.862 129.418 64.5252 129.668 64.0841C129.912 63.6547 129.943 63.2232 129.791 62.7637Z" fill="#E1EDF5"/>
<path d="M105.915 40.4154C106.104 40.4902 106.16 40.4748 106.358 40.4524L106.919 40.3965L106.95 40.531C106.943 40.8465 107.135 40.9556 107.118 41.2385C106.847 41.4767 106.565 41.7046 106.355 41.9957C106.347 42.3868 106.578 42.3909 106.688 42.7009C106.833 43.1061 106.774 44.8327 106.797 45.3737C106.874 47.1452 106.897 48.9256 107.046 50.693C107.127 51.6567 107.382 52.9074 107.401 53.8103C107.407 54.0523 107.354 54.2544 107.248 54.4748C107.13 54.5441 107.104 54.5905 106.965 54.5559C106.598 54.4644 106.234 54.0376 105.997 53.7706L105.937 54.0583L105.854 54.085C105.872 53.7022 105.846 53.3085 105.839 52.9248C105.642 51.6738 105.641 50.3203 105.534 49.0525C105.344 46.7748 105.076 44.4708 105.024 42.1871C103.289 42.0784 101.554 41.9817 99.8181 41.8969L99.8367 41.7797L99.7374 41.6888C99.3812 41.9372 99.1177 42.3657 98.8217 42.6817C98.4423 43.0882 97.2845 44.1699 96.7891 44.3531C97.303 43.2977 98.5249 41.705 99.3162 40.7948L100.456 40.9497L101.462 41.0511C102.758 41.265 104.083 41.3948 105.386 41.5708L105.012 40.7235C105.128 40.7421 105.262 40.7517 105.38 40.7381C105.625 40.71 105.769 40.5907 105.915 40.4154Z" fill="#B2BAC9"/>
<path d="M105.915 40.4155C106.103 40.4903 106.16 40.4749 106.357 40.4525C106.109 40.9498 105.863 41.3317 105.443 41.7129C104.044 41.6715 101.67 41.649 100.456 40.9498L101.462 41.0512C102.758 41.2651 104.083 41.3949 105.386 41.5709L105.011 40.7236C105.128 40.7422 105.262 40.7518 105.38 40.7383C105.624 40.7101 105.768 40.5908 105.915 40.4155Z" fill="#A6ABB6"/>
<path d="M99.8359 41.7798C100.873 41.8423 104.754 41.6772 105.387 42.1729C105.532 42.5372 105.613 42.9138 105.659 43.3004C105.875 45.1159 105.887 46.9622 106.042 48.7843C106.146 49.9967 106.411 51.201 106.489 52.413C106.503 52.6226 106.523 52.901 106.423 53.0936C106.361 53.2123 106.334 53.1888 106.209 53.2233C106.078 53.1286 105.955 53.0364 105.838 52.9249C105.642 51.6738 105.64 50.3204 105.533 49.0526C105.343 46.7749 105.075 44.4708 105.023 42.1872C103.289 42.0785 101.553 41.9818 99.8174 41.897L99.8359 41.7798Z" fill="#9E99A8"/>
<path d="M99.8174 41.897C101.553 41.9817 103.289 42.0785 105.023 42.1872C105.075 44.4708 105.343 46.7749 105.533 49.0525C105.64 50.3204 105.642 51.6738 105.838 52.9248C105.845 53.3086 105.871 53.7022 105.853 54.085L105.82 54.7361L105.732 54.7215C105.018 53.7066 104.597 52.3467 104.067 51.2192C102.617 48.136 101.078 45.0536 99.8174 41.897Z" fill="#610C34"/>
<path d="M94.9638 34.9664C95.0575 34.5301 95.7468 34.0855 96.1076 33.8228C96.2199 34.9123 96.1902 36.7306 96.6736 37.6857L96.5251 38.1838C95.6475 39.1194 94.3329 40.8087 93.2604 41.4234L93.1324 41.2817C92.9589 41.4723 92.8253 41.632 92.5793 41.7418C90.0637 41.5868 87.3411 41.8225 84.8271 42.0179C86.8933 40.4091 89.4678 39.4267 91.6508 37.9648C92.6756 37.2189 93.382 36.2078 94.3032 35.3634C94.4414 35.1666 94.5611 35.0465 94.7699 34.9163L94.9638 34.9664Z" fill="#791643"/>
<path d="M94.9634 34.9664C95.0571 34.5301 95.7464 34.0855 96.1073 33.8228C96.2196 34.9123 96.1899 36.7306 96.6732 37.6857L96.5248 38.1838C95.6472 39.1194 94.3326 40.8087 93.2601 41.4234L93.1321 41.2817L93.544 41.0659C93.2981 40.7622 93.441 40.4368 93.3204 40.1026C93.1831 39.7221 92.9567 39.4022 92.8918 38.9947C92.6794 37.6726 94.25 36.6614 94.3029 35.3634C94.4411 35.1666 94.5608 35.0465 94.7695 34.9163L94.9634 34.9664Z" fill="#DAECF6"/>
<path d="M94.3029 35.3636C94.4411 35.1668 94.5608 35.0467 94.7695 34.9165L94.9634 34.9666C94.6582 36.3298 94.1684 40.0843 93.544 41.0661C93.2981 40.7624 93.441 40.437 93.3204 40.1028C93.1831 39.7223 92.9567 39.4024 92.8918 38.9949C92.6794 37.6728 94.25 36.6616 94.3029 35.3636Z" fill="#921F4D"/>
<path d="M99.8182 41.897C101.079 45.0536 102.618 48.136 104.068 51.2192C104.598 52.3467 105.019 53.7066 105.732 54.7215L105.821 54.7361L105.854 54.085L105.937 54.0584L105.974 55.4247C104.853 54.4364 96.7835 46.8412 96.6787 46.2707C97.6797 45.2632 98.8329 43.1217 99.8182 41.897Z" fill="#791643"/>
<path d="M87.9714 35.5537L88.0997 35.6096L88.1134 35.664C87.238 36.4032 85.3407 39.3848 84.6995 40.4586C84.7024 40.4929 84.6997 40.5883 84.7208 40.6146C84.3982 40.7422 73.6997 39.2407 72.3196 39.0806C71.7411 38.9943 70.2609 38.9667 69.8682 38.5988L69.9662 38.4678C69.9852 38.4772 70.003 38.4891 70.0232 38.496C70.4249 38.6333 73.4741 37.942 74.1351 37.8231C77.3222 37.2757 80.5131 36.7487 83.7077 36.2421C84.8881 36.0597 86.9341 35.9384 87.9714 35.5537Z" fill="#BC3F6B"/>
<path d="M94.0777 70.5031C95.0732 69.1107 96.333 67.9007 98.1588 67.582C98.8435 67.4625 99.5578 67.4712 100.145 67.8659C100.562 68.1459 100.945 68.6385 101.03 69.122C101.123 69.6529 100.927 70.1434 100.6 70.568C100.377 70.8568 100.091 71.0883 99.7035 71.1387C98.0456 71.354 96.8767 68.6403 95.0231 70.7839C94.5982 71.2752 94.3904 71.946 94.2809 72.5627C94.0629 73.7959 94.0582 77.6081 94.2002 78.886C94.254 79.3696 94.3505 79.9009 94.7707 80.2261C95.2773 80.6175 96.4694 80.506 96.6893 80.9899C96.6726 81.1027 96.6986 81.1231 96.591 81.1946C96.4323 81.301 96.1679 81.3052 95.9777 81.3132C95.1381 81.3487 89.101 81.3173 88.6943 81.194C88.6355 81.1762 88.5803 81.1481 88.5276 81.1183C88.4479 80.9135 88.4747 80.9037 88.5677 80.7064C88.6 80.638 88.6185 80.6058 88.6771 80.5578C88.8265 80.5666 88.9757 80.5649 89.1247 80.5525C89.5521 80.519 90.0323 80.3642 90.3005 80.0289C90.8502 79.3419 90.6994 75.409 90.5659 74.456C90.5957 73.1549 90.9447 70.101 90.0189 69.1577C89.4313 68.559 88.2647 68.8545 88.2695 68.3606C88.2712 68.1977 88.2855 68.1315 88.3833 68.0003C89.2446 67.9311 90.1079 67.9655 90.9706 67.9298C92.0081 67.8868 93.0452 67.7745 94.0777 67.6671V70.5031Z" fill="#2A283C"/>
<path d="M92.4678 42.2793C93.2313 42.9323 94.0598 44.5057 94.6285 45.3731C92.9085 47.0529 91.0927 48.66 89.3019 50.2724C88.6736 50.8383 87.4999 51.6904 87.0547 52.3426C86.0859 53.2432 85.1209 54.2243 84.0784 55.0447L84.1327 54.9132L84.0106 55.0834C83.9041 54.8512 83.9595 54.59 83.9806 54.3434C84.2337 52.3454 84.376 50.3341 84.5644 48.3299C84.7198 46.4341 84.8854 44.539 85.0612 42.6447C86.1967 42.6153 91.7973 42.6122 92.4678 42.2793Z" fill="#921F4D"/>
<path d="M84.5653 48.33C84.9841 48.5101 86.7682 48.0375 87.2717 47.8624C87.464 47.7955 87.684 47.5296 87.7874 47.5373C87.7867 47.5976 87.7998 47.6595 87.7853 47.7182C87.7128 48.0113 87.331 48.4645 87.1803 48.7586C86.7944 49.5113 86.4524 50.2865 86.0484 51.0306C85.8503 51.3958 85.5913 51.7363 85.4029 52.1016C85.0722 52.7433 84.874 53.7231 84.316 54.219C84.2016 54.3208 84.1301 54.3178 83.9814 54.3435C84.2345 52.3455 84.3768 50.3342 84.5653 48.33Z" fill="#AB2357"/>
<path d="M113.909 18.0638C114.17 17.977 114.463 17.9046 114.707 17.7832C114.356 18.4947 113.573 19.9836 113.06 20.5106C112.922 20.872 112.713 21.283 112.435 21.5654C112.352 21.7197 112.281 21.8741 112.157 22.0039C111.791 22.8464 110.231 25.4797 109.631 26.1221C109.555 26.6981 107.856 29.1688 107.404 29.6511C107.251 29.705 107.184 29.6963 107.03 29.6683L107.055 29.8459C106.777 30.106 106.587 30.1499 106.202 30.1467C106.016 30.144 105.831 30.139 105.646 30.1317C104.597 29.8656 103.532 29.4268 102.511 29.0721C101.927 28.8394 101.281 28.632 100.748 28.3084L100.539 28.0329L100.521 27.907L101.102 27.1204C101.383 27.2767 101.665 27.3997 101.966 27.5188L102.075 27.3156C102.189 27.2726 102.241 27.2271 102.336 27.1552C102.332 26.0514 102.011 24.8851 101.778 23.8023C101.702 23.1771 101.657 22.5215 101.506 21.9095C102.295 21.8517 105.002 20.836 105.909 20.5486C108.567 19.7066 111.267 18.9472 113.909 18.0638Z" fill="#51092A"/>
<path d="M101.102 27.1201C101.383 27.2764 101.665 27.3994 101.966 27.5186C102.325 27.5993 102.676 27.7028 103.02 27.8291C103.363 27.9554 103.696 28.1034 104.018 28.2729C104.561 28.4775 106.755 29.2388 107.03 29.6681L107.055 29.8456C106.777 30.1058 106.587 30.1497 106.202 30.1464C106.016 30.1438 105.831 30.1388 105.646 30.1314C104.597 29.8654 103.532 29.4265 102.511 29.0719C101.927 28.8391 101.281 28.6318 100.748 28.3082L100.539 28.0326L100.521 27.9067L101.102 27.1201Z" fill="#B2BAC9"/>
<path d="M101.102 27.1201C101.383 27.2764 101.665 27.3994 101.966 27.5186C102.325 27.5993 102.676 27.7028 103.02 27.8291C103.363 27.9554 103.696 28.1034 104.018 28.2729C103.496 28.1815 102.929 28.1393 102.467 28.4352C102.376 28.5753 102.296 28.6342 102.339 28.8069C102.364 28.9092 102.443 28.9919 102.511 29.0719C101.927 28.8391 101.281 28.6318 100.748 28.3082L100.539 28.0326L100.521 27.9067L101.102 27.1201Z" fill="#9E99A8"/>
<path d="M101.506 21.9096C102.295 21.8518 105.002 20.8361 105.909 20.5487C108.567 19.7067 111.267 18.9473 113.909 18.064L114.047 18.2877C112.849 19.3875 111.418 20.3296 110.094 21.2911C108.337 22.5752 106.593 23.8739 104.861 25.1872C104.042 25.8073 103.033 26.4179 102.336 27.1553C102.332 26.0516 102.011 24.8852 101.778 23.8024C101.702 23.1773 101.657 22.5216 101.506 21.9096Z" fill="#AB2357"/>
<path d="M68.1323 75.2002C67.9306 75.082 67.7277 74.9619 67.5368 74.8282C67.4858 74.7927 67.4357 74.756 67.3865 74.7182C67.3374 74.6803 67.2893 74.6414 67.2422 74.6013C67.195 74.5612 67.149 74.5201 67.104 74.478C67.059 74.4358 67.0151 74.3925 66.9724 74.3483C66.9296 74.3041 66.888 74.2589 66.8476 74.2127C66.8072 74.1666 66.7679 74.1196 66.73 74.0716C66.692 74.0237 66.6553 73.9749 66.6198 73.9252C66.5844 73.8756 66.5503 73.8251 66.5174 73.7739C66.4846 73.7226 66.4531 73.6706 66.4229 73.618C66.3927 73.5652 66.3639 73.5119 66.3366 73.4579C66.3092 73.4039 66.2832 73.3493 66.2586 73.294C66.234 73.2388 66.2109 73.183 66.1893 73.1267C66.1676 73.0704 66.1474 73.0137 66.1286 72.9565C66.1099 72.8992 66.0926 72.8416 66.0768 72.7836C66.0611 72.7256 66.0469 72.6673 66.0342 72.6086C66.0214 72.5499 66.0102 72.491 66.0005 72.4317C65.838 71.3856 66.0606 70.1899 66.7428 69.3348C67.5503 68.3227 68.9117 67.8248 70.2023 67.6571C71.7361 67.4579 73.1914 67.7467 74.665 68.1285C74.9143 68.193 75.3815 68.2771 75.5687 68.4379C75.693 68.5448 75.6507 68.8808 75.6557 69.0368C75.6666 69.4815 75.8187 71.396 75.6101 71.7028C75.3827 71.7474 75.1718 71.7677 74.9396 71.7716C74.7834 70.7649 74.292 69.8335 73.4232 69.2107C72.6987 68.6912 71.766 68.425 70.8591 68.5454C70.25 68.6264 69.597 68.8992 69.2215 69.3759C68.9678 69.698 68.8746 70.0838 68.9469 70.4786C69.0703 71.1528 69.5455 71.717 70.1321 72.0955C72.2253 73.446 76.0538 73.48 76.6654 76.3433C76.8869 77.3803 76.6162 78.6932 75.9857 79.5678C75.1297 80.7553 73.7031 81.305 72.2582 81.5509C70.0924 81.9195 68.0188 81.2678 65.9782 80.6615C65.974 79.8928 65.7698 77.2798 66.2142 76.7157C66.3742 76.7387 66.5048 76.7164 66.6026 76.8464C66.8314 77.1503 66.8614 77.7153 66.9838 78.0784C67.4159 79.3596 68.7736 80.4442 70.1528 80.6988C70.7104 80.8016 71.3054 80.7852 71.8608 80.6784C71.0164 79.7868 68.4513 76.2497 68.1323 75.2002Z" fill="#2A283C"/>
<path d="M68.1318 75.2002C69.671 75.8985 72.8694 76.4024 73.4776 78.0779C73.6677 78.6017 73.5472 79.1765 73.2849 79.6593C72.9934 80.1957 72.4469 80.4929 71.8603 80.6784C71.0159 79.7868 68.4508 76.2496 68.1318 75.2002Z" fill="#E1EDF5"/>
<path d="M100.749 28.3081C101.282 28.6317 101.928 28.8391 102.512 29.0718C103.533 29.4265 104.598 29.8653 105.647 30.1314C106.298 30.4245 107.02 30.4642 107.654 30.7303C107.172 31.9876 104.532 33.2842 104.099 34.5247C104.081 34.5756 104.059 34.6252 104.039 34.6755L103.831 34.4209C103.59 34.4561 103.41 34.5793 103.271 34.7653C103.077 35.0237 103.07 35.3197 103.071 35.624C103.32 36.3146 103.54 37.0385 103.843 37.7088C104.04 38.3697 104.276 39.0088 104.529 39.6524L105.012 40.7235L105.386 41.5708C104.083 41.3948 102.758 41.265 101.462 41.0511L100.456 40.9497L99.3163 40.7948C98.5249 41.705 97.3031 43.2977 96.7891 44.3531L96.7409 44.4155C96.4718 44.7705 96.097 45.6563 95.6721 45.7836L95.2324 45.0376C94.9123 44.0474 93.2173 42.3938 93.0791 41.5967L93.2609 41.4232C94.3334 40.8085 95.648 39.1192 96.5256 38.1837L96.6741 37.6856C96.1907 36.7305 96.2204 34.9121 96.1082 33.8226C96.1063 33.6455 96.1304 33.472 96.1508 33.2961L96.2538 33.2956L96.4329 33.6501C96.4765 33.4467 96.6128 33.2873 96.7325 33.1175L96.6694 33.1039C96.5711 32.9096 96.547 32.7375 96.5266 32.5245C96.3791 32.2253 96.2937 31.9319 96.3781 31.6141L96.688 31.5149C96.5228 31.4924 96.3206 31.4876 96.1861 31.3903C96.6676 30.887 97.6278 30.4743 98.2336 30.0854C99.1026 29.5314 99.9409 28.939 100.749 28.3081Z" fill="#51092A"/>
<path d="M98.5824 37.0703C98.7262 37.3174 98.8811 37.5626 98.9999 37.8213L99.5769 38.964C99.6845 39.3109 99.8348 39.6392 99.9833 39.9719C99.332 39.6349 98.3022 38.7023 97.6472 38.2281L96.9561 37.7547C97.226 37.8263 97.5906 37.9013 97.8671 37.8197C98.2521 37.7064 98.4191 37.3849 98.5824 37.0703Z" fill="#791643"/>
<path d="M96.5256 38.1841C96.1731 40.4491 95.52 43.5658 95.6721 45.7841L95.2324 45.0381C94.9123 44.0479 93.2173 42.3943 93.0791 41.5971L93.2609 41.4236C94.3334 40.8089 95.648 39.1196 96.5256 38.1841Z" fill="#921F4D"/>
<path d="M96.7319 33.1177C97.3804 33.6076 100.578 36.0269 100.772 36.4701L100.746 36.5326C100.693 37.5829 100.766 39.6843 100.422 40.6011C100.221 40.4268 100.111 40.1957 99.9827 39.9717C99.8342 39.6391 99.6839 39.3108 99.5763 38.9638L98.9993 37.8212C98.8805 37.5625 98.7256 37.3172 98.5818 37.0702C98.4185 37.3848 98.2515 37.7062 97.8665 37.8196C97.59 37.9011 97.2254 37.8262 96.9555 37.7546L96.6734 37.6857C96.1901 36.7306 96.2198 34.9123 96.1075 33.8227C96.1057 33.6456 96.1298 33.4721 96.1502 33.2963L96.2532 33.2957L96.4322 33.6503C96.4758 33.4468 96.6122 33.2874 96.7319 33.1177Z" fill="#E1EDF5"/>
<path d="M96.1075 33.8229C96.1057 33.6458 96.1298 33.4723 96.1502 33.2964L96.2532 33.2959L96.4322 33.6505C97.0918 34.6818 98.1031 35.9899 98.5818 37.0703C98.4185 37.3849 98.2515 37.7064 97.8665 37.8198C97.59 37.9013 97.2254 37.8263 96.9555 37.7547L96.6734 37.6859C96.1901 36.7308 96.2198 34.9124 96.1075 33.8229Z" fill="#921F4D"/>
<path d="M102.305 33.4507C102.794 33.4829 103.174 33.7632 103.683 33.7262C103.699 33.7251 103.715 33.7244 103.731 33.7234C103.778 33.9311 103.884 34.2141 103.83 34.4212C103.59 34.4565 103.41 34.5797 103.271 34.7656C103.077 35.0241 103.07 35.3201 103.071 35.6244C103.32 36.315 103.54 37.0388 103.842 37.7092C104.04 38.37 104.276 39.0092 104.529 39.6527L105.011 40.7238L105.386 41.5711C104.083 41.3951 102.758 41.2653 101.462 41.0515L101.944 40.9898C101.651 40.7791 100.902 40.7474 100.513 40.6295L100.423 40.6013C100.766 39.6845 100.694 37.5831 100.747 36.5328L100.773 36.4703L100.856 36.2816C101.11 35.5959 101.338 33.8929 102.02 33.5284L102.305 33.4507Z" fill="#610C34"/>
<path d="M102.305 33.4507C102.794 33.4829 103.173 33.7632 103.682 33.7262C103.698 33.7251 103.715 33.7244 103.731 33.7234C103.778 33.9311 103.884 34.2141 103.83 34.4212C103.59 34.4565 103.41 34.5797 103.27 34.7656C103.076 35.0241 103.069 35.3201 103.07 35.6244C103.32 36.315 103.539 37.0388 103.842 37.7092C104.039 38.37 104.275 39.0092 104.528 39.6527L104.422 39.8176C103.893 39.4895 103.439 38.7286 103.012 38.2678C102.347 37.5529 101.64 36.8782 100.855 36.2816C101.11 35.5959 101.337 33.8929 102.02 33.5284L102.305 33.4507Z" fill="#51092A"/>
<path d="M102.305 33.4507C102.794 33.4829 103.173 33.7632 103.682 33.7262C103.698 33.7251 103.715 33.7244 103.731 33.7234C103.778 33.9311 103.884 34.2141 103.83 34.4212C103.59 34.4565 103.41 34.5797 103.27 34.7656C103.077 35.0241 103.069 35.3201 103.07 35.6244C102.809 34.9198 102.654 34.1166 102.305 33.4507Z" fill="#9E99A8"/>
<path d="M100.748 28.3081C101.282 28.6317 101.927 28.8391 102.512 29.0718C103.532 29.4265 104.597 29.8653 105.647 30.1314C106.298 30.4245 107.02 30.4642 107.653 30.7303C107.172 31.9876 104.531 33.2842 104.098 34.5247C104.081 34.5756 104.058 34.6252 104.039 34.6755L103.83 34.4209C103.884 34.2138 103.778 33.9308 103.731 33.7231C103.715 33.7241 103.698 33.7248 103.683 33.7259C103.173 33.7628 102.794 33.4826 102.305 33.4503L102.02 33.528C101.337 33.8926 101.11 35.5955 100.856 36.2812L100.772 36.47C100.578 36.0268 97.3805 33.6075 96.732 33.1175L96.6689 33.1039C96.5706 32.9096 96.5464 32.7375 96.526 32.5245C96.3785 32.2253 96.2932 31.9319 96.3776 31.6141L96.6874 31.5149C96.5223 31.4924 96.3201 31.4876 96.1855 31.3903C96.667 30.887 97.6272 30.4743 98.2331 30.0854C99.102 29.5314 99.9404 28.939 100.748 28.3081Z" fill="#791643"/>
<path d="M96.688 31.5151C99.0323 31.698 100.523 31.7601 102.594 32.9717C102.974 33.1943 103.423 33.4134 103.731 33.7234C103.716 33.7243 103.699 33.725 103.683 33.7262C103.174 33.7631 102.794 33.4829 102.305 33.4506L102.021 33.5283C101.338 33.8928 101.11 35.5958 100.856 36.2815L100.773 36.4703C100.579 36.0271 97.381 33.6077 96.7325 33.1178L96.6694 33.1042C96.5711 32.9098 96.5469 32.7377 96.5265 32.5248C96.379 32.2256 96.2937 31.9322 96.3781 31.6144L96.688 31.5151Z" fill="url(#paint1_linear_1360_212)"/>
<path d="M96.5264 32.5249C96.6999 32.6787 96.8873 32.852 97.1118 32.9358C98.2705 33.3695 100.753 33.5408 102.02 33.5284C101.338 33.893 101.11 35.5959 100.856 36.2816L100.773 36.4704C100.579 36.0272 97.3808 33.6078 96.7323 33.1179L96.6692 33.1043C96.5709 32.91 96.5468 32.7379 96.5264 32.5249Z" fill="#921F4D"/>
<path d="M133.099 71.9949C133.347 71.4604 133.336 70.7637 133.554 70.1903C133.9 69.2844 134.61 68.6557 135.529 68.2652C137.747 67.3222 140.552 67.6917 142.756 68.4758C142.984 68.8996 143.006 71.0001 142.893 71.4921C142.739 71.6766 142.681 71.7356 142.411 71.7461C142.37 71.7477 142.263 71.728 142.231 71.705C142.034 71.5652 141.374 69.8109 140.503 69.1661C139.773 68.6255 138.81 68.5406 137.918 68.6509C138.534 69.1669 141.226 72.6968 141.604 73.3664C141.512 73.4338 141.42 73.4905 141.32 73.5466C142.424 73.9979 143.465 74.7286 143.916 75.82C144.315 76.787 144.196 77.9893 143.74 78.9204C143.18 80.0659 142.035 80.8682 140.8 81.2842C139.294 81.7911 137.685 81.7681 136.129 81.518C135.678 81.4454 135.214 81.3114 134.764 81.262C134.488 80.9854 133.998 81.0066 133.644 80.8736C133.32 80.7516 133.273 80.3946 133.169 80.1149C133.181 80.2866 133.16 80.453 133.142 80.6239C133.135 79.7531 133.166 78.8707 133.048 78.0071C132.999 77.6451 132.987 77.2846 133.257 76.9884C133.456 76.7696 133.727 76.7304 134.013 76.6993L134.105 76.6897C134.108 76.6715 134.113 76.6535 134.114 76.6351C134.157 75.8895 133.015 72.4352 132.473 71.8423C132.505 71.855 132.538 71.8668 132.569 71.8803C132.746 71.9562 132.88 72.1155 133.011 72.2483L133.126 72.2625C133.132 72.1534 133.139 72.0997 133.099 71.9949Z" fill="#2A283C"/>
<path d="M141.32 73.5466C140.052 72.9649 138.602 72.7531 137.389 72.0517C136.884 71.7595 136.394 71.3428 136.259 70.7742C136.153 70.3233 136.273 69.7909 136.535 69.4039C136.864 68.9162 137.346 68.7622 137.918 68.6509C138.534 69.1669 141.227 72.6968 141.605 73.3664C141.513 73.4338 141.42 73.4905 141.32 73.5466Z" fill="#DAECF6"/>
<path d="M132.473 71.8423C132.505 71.855 132.538 71.8667 132.569 71.8803C132.746 71.9562 132.88 72.1155 133.011 72.2483L133.126 72.2625C133.132 72.1533 133.139 72.0997 133.099 71.9949C133.107 72.0135 133.115 72.032 133.122 72.0508C133.343 72.6021 133.363 73.2443 133.701 73.7483C133.926 74.0846 134.608 74.5258 134.697 74.8661C135.441 76.7232 137.71 78.9467 138.277 80.6849L137.815 80.7612C137.505 80.7414 137.23 80.6706 136.938 80.5719C135.095 79.9509 134.917 78.4833 134.144 77.0522C134.031 76.8435 133.961 76.753 133.72 76.6811C132.819 77.2394 133.733 79.2522 133.199 80.0735C133.19 80.0878 133.18 80.1011 133.169 80.1149C133.181 80.2866 133.16 80.453 133.142 80.6238C133.135 79.7531 133.166 78.8707 133.048 78.0071C132.999 77.6451 132.987 77.2846 133.257 76.9884C133.456 76.7696 133.727 76.7304 134.013 76.6993L134.105 76.6897C134.108 76.6715 134.113 76.6535 134.114 76.6351C134.157 75.8895 133.015 72.4352 132.473 71.8423Z" fill="#E1EDF5"/>
<path d="M134.697 74.8657C135.207 75.0612 135.684 75.308 136.198 75.4947C137.684 76.0335 140.087 76.583 140.774 78.0845C140.963 78.4989 140.981 78.953 140.799 79.3725C140.564 79.9113 140.119 80.3909 139.538 80.6026C139.027 80.7886 138.355 80.8464 137.814 80.7609L138.276 80.6845C137.71 78.9463 135.441 76.7228 134.697 74.8657Z" fill="#DAECF6"/>
<path d="M102.401 68.827C104.529 67.9411 106.822 67.4127 109.162 67.6202C110.553 67.7435 112.013 68.1842 112.924 69.2426C113.182 69.5427 113.499 69.9853 113.455 70.3882C114.028 71.8276 113.013 79.3961 114.146 79.931C114.361 80.0322 114.601 80.0366 114.825 79.9631C115.062 79.8855 115.274 79.7472 115.514 79.6804L115.611 79.8408C115.487 80.3731 115.203 80.5987 114.736 80.9056C113.965 81.4125 112.999 81.6423 112.072 81.4744C110.676 81.2215 110.895 80.2234 110.245 79.357C110.234 79.3428 110.223 79.329 110.212 79.315C110.202 79.4393 110.158 79.5141 110.088 79.6172C109.381 80.6689 107.936 81.3235 106.689 81.5712C105.413 81.8248 104.041 81.6992 102.939 81.0007C102.107 80.4733 101.57 79.6789 101.382 78.7517C101.37 78.6927 101.36 78.6335 101.352 78.5741C101.343 78.5147 101.336 78.4552 101.331 78.3954C101.325 78.3357 101.321 78.2759 101.318 78.216C101.317 78.1561 101.316 78.0961 101.317 78.0362C101.317 77.9763 101.319 77.9164 101.323 77.8566C101.327 77.7967 101.332 77.737 101.339 77.6774C101.346 77.6178 101.354 77.5584 101.365 77.4992C101.375 77.44 101.386 77.3811 101.398 77.3224C101.411 77.2637 101.426 77.2054 101.442 77.1473C101.458 77.0893 101.476 77.0317 101.495 76.9745C101.513 76.9173 101.533 76.8605 101.555 76.8042C101.577 76.748 101.601 76.6922 101.626 76.637C101.65 76.5817 101.676 76.5271 101.704 76.4731C101.731 76.4191 101.759 76.3657 101.79 76.313C101.82 76.2604 101.852 76.2084 101.884 76.1571C101.918 76.1059 101.952 76.0554 101.987 76.0057C103.631 73.7463 107.364 73.5879 109.953 73.1353C110.025 73.021 110.067 72.9156 110.081 72.7833C110.192 71.6973 110.164 70.267 109.392 69.3982C109.365 69.368 109.338 69.3384 109.309 69.3096C109.281 69.2806 109.251 69.2524 109.221 69.225C109.191 69.1974 109.161 69.1706 109.129 69.1446C109.098 69.1184 109.066 69.0931 109.034 69.0685C109.001 69.044 108.967 69.0202 108.933 68.9972C108.899 68.9742 108.865 68.952 108.83 68.9306C108.795 68.9093 108.759 68.8888 108.723 68.8691C108.687 68.8494 108.65 68.8306 108.613 68.8126C108.576 68.7947 108.538 68.7776 108.5 68.7614C108.462 68.7452 108.424 68.73 108.385 68.7157C108.346 68.7013 108.307 68.6878 108.267 68.6753C108.228 68.6628 108.188 68.6512 108.148 68.6406C108.107 68.63 108.067 68.6203 108.026 68.6116C107.985 68.6029 107.944 68.5951 107.904 68.5884C107.862 68.5816 107.821 68.5758 107.779 68.5709C107.738 68.5661 107.696 68.5622 107.655 68.5593C105.39 68.3913 105.542 70.1443 104.252 71.133C104.031 71.3022 103.757 71.4212 103.467 71.3802C103.098 71.3281 102.693 71.0286 102.481 70.7452C102.05 70.172 102.271 69.4574 102.401 68.827Z" fill="#2A283C"/>
<path d="M109.541 74.1274C109.724 74.1053 109.861 74.1003 110.043 74.1349C110.06 74.1737 110.084 74.2225 110.096 74.2647C110.367 75.2062 110.187 77.7322 109.736 78.5701C109.426 79.1455 108.91 79.6278 108.251 79.8252C107.519 80.0442 106.78 79.8923 106.114 79.574C105.648 79.2206 105.351 78.7901 105.243 78.2291C105.084 77.4131 105.234 76.4113 105.752 75.7274C106.611 74.5924 108.189 74.3543 109.541 74.1274Z" fill="#DAECF6"/>
<path d="M79.6517 68.9022C78.9118 68.906 78.1642 68.9296 77.4256 68.8893L77.2953 68.7322C77.2447 68.4752 77.2477 68.3125 77.3287 68.062C77.5967 67.8417 78.2743 67.8436 78.6335 67.714C80.4668 67.0519 81.4239 65.9658 82.2748 64.3506C82.3873 64.1372 82.4542 64.124 82.6777 64.0483C82.8111 64.0733 82.9521 64.0938 83.0688 64.1632C83.2715 64.2837 83.256 64.4237 83.3025 64.6294C84.0204 65.5583 84.9019 66.4848 85.1707 67.6288L84.641 67.7982C85.5498 67.887 86.5393 67.7097 87.428 67.873L87.4437 68.8382C87.4292 68.9354 87.389 69.0697 87.3949 69.1647C87.4391 69.8696 89.5867 72.5673 90.0588 73.3521C90.2772 73.7151 90.4098 74.0686 90.5661 74.4561C90.6996 75.4091 90.8504 79.3419 90.3007 80.029C90.0325 80.3642 89.5523 80.5191 89.1249 80.5525C88.9759 80.5649 88.8267 80.5667 88.6773 80.5578L88.5458 80.4913L88.3798 80.5438C88.3413 80.7148 88.3073 80.8866 88.2776 81.0591C87.7088 80.7845 88.0742 80.0251 87.8525 79.5388L87.7612 79.6617C87.7511 79.8576 87.7876 80.3099 87.6635 80.4567C87.1174 81.1031 84.638 81.541 83.7374 81.5689C82.6088 81.6038 81.4318 81.3154 80.6034 80.5558C80.1834 80.1707 79.9239 79.7074 79.7999 79.1691C79.5273 77.9854 79.6642 76.6202 79.6678 75.4101C79.6742 73.242 79.7096 71.0698 79.6517 68.9022Z" fill="#2A283C"/>
<path d="M83.3027 64.6294C84.0207 65.5584 84.9021 66.4848 85.171 67.6289L84.6413 67.7983C85.5501 67.8871 86.5396 67.7097 87.4283 67.8731C86.1299 68.0527 84.6329 67.9296 83.3178 67.9134L83.3027 64.6294Z" fill="#E1EDF5"/>
<path d="M87.4434 68.8384C87.4289 68.9355 87.3886 69.0698 87.3946 69.1649C87.4388 69.8698 89.5863 72.5675 90.0585 73.3523C90.2769 73.7153 90.4094 74.0688 90.5658 74.4562C90.6993 75.4093 90.8501 79.3421 90.3004 80.0291C90.0322 80.3644 89.552 80.5192 89.1246 80.5527C88.9756 80.5651 88.8264 80.5669 88.677 80.558L88.5454 80.4915L88.3795 80.5439C88.341 80.715 88.3069 80.8867 88.2773 81.0593C87.7085 80.7847 88.0739 80.0253 87.8522 79.5389L87.7608 79.6619C86.9905 79.7965 86.347 80.1563 85.5249 80.1451C84.9683 80.1375 84.2728 79.9262 83.88 79.5382C83.5955 79.2568 83.4339 78.8729 83.3659 78.4941C83.1829 77.4755 83.301 76.2874 83.3035 75.2502L83.3253 68.9406C84.3847 68.897 86.5172 69.1183 87.4434 68.8384Z" fill="#E1EDF5"/>
<path d="M119.803 81.3762C118.536 81.3413 117.232 81.4387 115.976 81.2937L115.902 81.1775C116.003 80.5176 117.402 80.4998 117.834 79.862C118.057 79.5336 118.038 78.9334 118.058 78.5464C118.135 76.9947 118.278 64.0016 118.035 63.2245C117.743 62.2906 116.817 62.3935 116.11 61.9689C115.918 61.8534 115.912 61.7578 115.866 61.564L115.965 61.4547C116.43 61.3573 121.482 61.0372 121.64 61.0992L121.609 61.3687C121.876 61.493 122.118 61.7117 122.215 61.9848C122.235 62.0422 122.245 62.0915 122.252 62.1514C122.608 62.2954 122.983 62.7679 123.119 63.1091C123.13 63.1374 123.138 63.167 123.147 63.196C124.021 63.8905 126.209 67.8601 126.787 68.0485C126.773 68.0532 126.758 68.0581 126.744 68.0624C126.174 68.2268 124.318 67.914 123.998 68.2448C123.962 68.4746 123.953 68.4771 124.089 68.6691C124.867 68.9275 125.587 68.9427 125.997 69.7418C126.464 70.6514 126.428 78.8565 126.056 79.8337C125.951 80.1136 125.608 80.3478 125.325 80.4586C124.888 80.6303 124.388 80.6235 123.938 80.754L123.882 80.6224C123.746 80.898 123.815 81.2273 123.656 81.4779C122.779 81.5563 120.57 81.6403 119.803 81.3762Z" fill="#2A283C"/>
<path d="M121.61 61.3691C121.877 61.4934 122.119 61.7121 122.215 61.9852C122.236 62.0427 122.246 62.0919 122.253 62.1518C122.345 62.2998 122.401 62.3526 122.396 62.5274C122.374 63.4472 122.123 64.3992 122.024 65.3193C121.924 66.2531 121.976 67.2261 121.977 68.1646C121.993 70.821 121.963 73.4769 121.886 76.1323C121.866 77.1028 122.01 78.3202 121.74 79.2472C121.701 79.3806 121.653 79.504 121.577 79.6228C121.691 79.2122 121.689 61.7045 121.61 61.3691Z" fill="#B2BAC9"/>
<path d="M122.252 62.1514C122.608 62.2953 122.983 62.7679 123.119 63.109C123.131 63.1373 123.138 63.167 123.147 63.196C124.021 63.8905 126.209 67.8601 126.787 68.0485C126.773 68.0531 126.758 68.0581 126.744 68.0623C126.174 68.2268 124.318 67.914 123.998 68.2448C123.962 68.4746 123.953 68.4771 124.089 68.669C124.867 68.9275 125.587 68.9427 125.997 69.7418C126.464 70.6513 126.429 78.8564 126.057 79.8336C125.951 80.1136 125.608 80.3478 125.326 80.4586C124.889 80.6302 124.389 80.6235 123.939 80.754L123.882 80.6224C123.747 80.898 123.815 81.2273 123.657 81.4779C122.779 81.5563 120.57 81.6403 119.803 81.3762C120.435 81.3677 123.175 81.4998 123.525 81.2607C123.624 81.0511 123.638 80.9992 123.619 80.7709C123.367 80.5992 123.132 80.6134 122.828 80.5777C122.811 80.5771 122.794 80.5779 122.778 80.576C122.214 80.509 121.874 80.0215 121.577 79.6224C121.653 79.5036 121.701 79.3802 121.74 79.2468C122.01 78.3198 121.865 77.1023 121.886 76.1319C121.962 73.4765 121.993 70.8206 121.976 68.1642C121.975 67.2257 121.924 66.2527 122.024 65.3188C122.122 64.3988 122.373 63.4467 122.396 62.527C122.4 62.3521 122.345 62.2994 122.252 62.1514Z" fill="#DAECF6"/>
<path d="M54.4142 61.2653C54.8434 61.2359 55.3119 61.1571 55.6591 61.4246C56.451 62.2805 57.036 63.5069 57.6395 64.4982C59.6345 67.7752 61.3593 71.0976 62.9369 74.5716C63.8408 76.5622 64.5959 78.6258 65.6029 80.5713C65.6375 80.5991 65.6485 80.604 65.6737 80.647C65.7713 80.8132 65.7566 81.0038 65.7218 81.1821C65.4882 81.3629 59.2072 81.3181 58.324 81.3427C57.8293 81.3566 57.0916 81.4128 56.7137 81.0725C56.6648 80.8572 56.7162 80.8294 56.8232 80.641C57.2459 80.5445 57.6946 80.4984 58.1081 80.3812C58.3447 80.3142 58.5441 80.1194 58.642 79.9087C59.0903 78.9439 57.5274 76.0676 57.0678 75.0458C55.2283 75.0121 53.3852 75.0324 51.5454 75.0316C50.9553 76.3896 50.3619 77.8128 49.6629 79.122C49.4609 79.5002 49.0993 79.7526 48.9187 80.1537C49.4182 80.4237 50.2085 80.3821 50.6117 80.663C50.6267 80.8878 50.6331 81.0422 50.5246 81.2467C48.7128 81.3991 46.4074 81.3282 44.5716 81.2514C44.4205 81.047 44.4549 80.8995 44.4511 80.6598C44.7252 80.4134 45.2077 80.4471 45.5664 80.3005C46.0521 80.1017 46.3846 79.7577 46.6498 79.3344C47.8075 77.4867 48.7593 74.6406 49.6241 72.5787C51.208 68.8022 52.8634 65.0548 54.4142 61.2653Z" fill="#2A283C"/>
<path d="M50.0581 75.0416L51.5453 75.0317C50.9553 76.3898 50.3618 77.813 49.6628 79.1222C49.4609 79.5004 49.0992 79.7528 48.9186 80.1539C48.7727 80.0357 48.6468 79.9238 48.5773 79.7501C48.1976 78.8007 49.6514 75.9907 50.0581 75.0416Z" fill="#DAECF6"/>
<path d="M53.5734 66.6094L54.1425 67.8707C54.0724 68.8758 52.276 72.6588 51.7637 73.8405L50.5518 73.8358C51.2109 71.6567 52.5949 68.7348 53.5734 66.6094Z" fill="#DAECF6"/>
<path d="M54.1425 67.8706C54.976 69.8369 55.7914 71.8099 56.5886 73.7896C54.9815 73.8143 53.3696 73.7998 51.7637 73.8404C52.276 72.6586 54.0724 68.8757 54.1425 67.8706Z" fill="#E1EDF5"/>
<path d="M55.6592 61.4248C56.451 62.2807 57.036 63.5071 57.6395 64.4984C59.6345 67.7754 61.3594 71.0977 62.937 74.5718C63.8409 76.5624 64.5959 78.626 65.6029 80.5715C65.1749 80.486 64.7768 80.3928 64.404 80.1662C64.0153 79.9298 63.7549 79.5944 63.546 79.2112C62.9449 78.1081 62.4687 76.9194 61.9593 75.7745L59.1663 69.4668L56.8822 64.3862C56.4579 63.4412 55.8917 62.4259 55.6592 61.4248Z" fill="#E1EDF5"/>
<path d="M129.497 67.7676C129.669 67.9579 129.702 67.9665 129.705 68.2131L129.721 68.3708C130.121 68.419 130.353 68.7628 130.583 69.0441C130.992 69.5452 132.35 71.327 132.473 71.8423C133.015 72.4352 134.157 75.8895 134.114 76.6351C134.113 76.6535 134.108 76.6715 134.106 76.6897L134.013 76.6993C133.727 76.7304 133.456 76.7696 133.257 76.9884C132.987 77.2846 132.999 77.6451 133.048 78.0072C133.166 78.8707 133.135 79.7531 133.143 80.6239C133.16 80.453 133.181 80.2866 133.169 80.1149C133.273 80.3946 133.32 80.7516 133.644 80.8736C133.998 81.0066 134.488 80.9854 134.764 81.262C133.977 81.2736 133.19 81.2968 132.403 81.3317C132.584 81.4475 132.711 81.5696 132.837 81.7378C133.29 82.3417 137.424 88.2603 137.492 88.4997C137.559 88.7399 137.517 89.1064 137.514 89.358C137.35 89.5447 137.267 89.6684 136.994 89.7096C135.98 89.8612 135.052 88.5549 134.12 88.8013C134.048 88.9249 133.988 88.9696 134.031 89.1125C134.221 89.7376 135.133 90.2356 135.24 90.8353C135.661 91.8094 135.324 97.0882 135.375 98.5199C135.277 98.7136 135.204 98.7961 135.004 98.8995C134.511 98.8443 133.8 97.8957 133.491 97.5257C132.85 96.7576 129.392 92.5081 129.333 92.011L129.197 91.89C129.209 91.8628 129.223 91.8357 129.234 91.8076C129.39 91.4175 129.37 90.3811 129.171 90.0077C129.074 89.2037 127.785 88.2261 127.443 87.4174C127.366 87.2346 127.34 87.1782 127.425 87.0021C128.576 87.059 128.832 88.7373 129.614 89.2756L129.682 89.1511C129.763 89.038 129.778 88.9828 129.769 88.8469C129.745 88.4453 129.852 87.9947 129.755 87.6048C129.625 87.0713 126.15 81.6371 125.665 81.37C125.26 81.3341 124.588 81.4955 124.243 81.313C124.024 81.197 124.011 80.9689 123.938 80.7543C124.388 80.6239 124.888 80.6306 125.325 80.4589C125.608 80.3481 125.951 80.114 126.056 79.834C126.429 78.8568 126.464 70.6517 125.997 69.7422C125.587 68.943 124.867 68.9279 124.089 68.6694C123.953 68.4775 123.962 68.4749 123.998 68.2451C124.318 67.9143 126.174 68.2272 126.744 68.0627C126.758 68.0585 126.773 68.0535 126.787 68.0488C127.676 68.0766 128.62 67.9068 129.497 67.7676Z" fill="#DAECF6"/>
<path d="M131.011 91.5742C131.645 91.7049 132.335 92.7412 132.805 93.1927C132.954 93.219 133.144 93.2348 133.264 93.3286C133.369 93.4101 133.391 93.5784 133.405 93.7038C133.452 94.1036 133.524 95.2302 133.248 95.545C133.171 95.4766 133.206 95.5108 133.129 95.424C132.191 94.357 130.86 93.0577 131.011 91.5742Z" fill="#E1EDF5"/>
<path d="M129.171 90.0075C129.074 89.2035 127.785 88.226 127.442 87.4173C127.365 87.2345 127.34 87.178 127.425 87.002C128.576 87.0589 128.832 88.7371 129.614 89.2754L129.682 89.1509C129.698 89.1422 129.714 89.1334 129.729 89.1237C130.525 88.6144 130.83 86.8538 131.965 87.0181C131.991 87.0218 132.016 87.0262 132.042 87.0304C132.047 87.3128 130.341 89.5314 129.997 89.8769C129.956 89.9181 129.912 89.947 129.862 89.9794C130.019 90.4073 130.142 91.2735 129.925 91.6943C129.886 91.7697 129.846 91.8162 129.786 91.8776C129.581 91.9153 129.405 91.9091 129.197 91.8898C129.209 91.8627 129.223 91.8355 129.234 91.8074C129.39 91.4173 129.37 90.381 129.171 90.0075Z" fill="#2A283C"/>
<path d="M129.497 67.7676C129.669 67.9579 129.702 67.9665 129.705 68.2131L129.721 68.3708C129.84 69.3279 129.765 70.3455 129.762 71.3095L129.742 76.7613C129.741 77.5496 129.625 78.4931 129.785 79.2562C129.865 79.6354 130.049 79.9593 130.372 80.2012C130.918 80.6084 131.927 80.5152 132.327 80.9597C132.324 81.1507 132.34 81.1764 132.211 81.3338C130.038 81.4678 127.841 81.2773 125.665 81.37C125.26 81.3341 124.588 81.4955 124.243 81.313C124.024 81.197 124.011 80.9689 123.938 80.7543C124.388 80.6239 124.888 80.6306 125.325 80.4589C125.608 80.3481 125.951 80.114 126.056 79.834C126.429 78.8568 126.464 70.6517 125.997 69.7422C125.587 68.943 124.867 68.9279 124.089 68.6694C123.953 68.4775 123.962 68.4749 123.998 68.2451C124.318 67.9143 126.174 68.2272 126.744 68.0627C126.758 68.0585 126.773 68.0535 126.787 68.0488C127.676 68.0766 128.62 67.9068 129.497 67.7676Z" fill="#2A283C"/>
<path d="M113.06 20.5106L113.251 20.6124C113.802 20.508 114.194 19.8097 114.539 19.4246C114.712 19.2312 114.887 19.034 115.171 19.0088C115.398 19.1207 115.437 19.1721 115.581 19.3753L115.636 19.4525C116.202 19.7576 120.777 25.9428 120.949 26.5964C120.955 26.623 120.96 26.6501 120.965 26.6771C121.062 27.3615 120.424 29.2595 120.23 30.0665C119.899 31.3975 119.624 32.7387 119.404 34.0901C119.231 35.1126 119.146 37.1991 118.745 38.0316C118.984 38.1512 119.267 38.2464 119.386 38.4873C119.624 38.5653 119.837 38.6116 120.001 38.8051C119.717 38.9814 119.244 38.9805 118.906 39.0177C117.11 39.1021 115.275 39.3907 113.485 39.5886C111.31 39.8294 109.065 39.9932 106.919 40.3969L106.357 40.4528C106.16 40.4751 106.103 40.4906 105.915 40.4158C105.768 40.591 105.624 40.7104 105.38 40.7385C105.262 40.752 105.128 40.7425 105.011 40.7239L104.529 39.6528C104.275 39.0092 104.04 38.3701 103.842 37.7092C103.54 37.0389 103.32 36.315 103.07 35.6244C103.069 35.3201 103.077 35.0241 103.271 34.7657C103.41 34.5797 103.59 34.4565 103.83 34.4213L104.039 34.6759C104.058 34.6256 104.081 34.576 104.098 34.5251C104.532 33.2846 107.172 31.988 107.653 30.7307C107.02 30.4646 106.298 30.4249 105.647 30.1318C105.832 30.1391 106.017 30.1441 106.202 30.1468C106.587 30.15 106.778 30.1061 107.055 29.8459L107.03 29.6684C107.185 29.6964 107.252 29.7051 107.405 29.6512C107.857 29.1688 109.555 26.6982 109.631 26.1222C110.232 25.4798 111.791 22.8465 112.158 22.004C112.281 21.8742 112.352 21.7197 112.435 21.5655C112.713 21.2831 112.922 20.8721 113.06 20.5106Z" fill="#DAECF6"/>
<path d="M113.06 20.5106L113.251 20.6124C113.802 20.508 114.194 19.8097 114.539 19.4246C114.712 19.2312 114.887 19.034 115.171 19.0088C115.398 19.1207 115.437 19.1721 115.581 19.3753L115.636 19.4525C115.76 19.8865 115.521 20.2926 115.292 20.6701C113.905 22.9498 112.244 25.0519 110.691 27.2343C110.202 27.9218 109.634 28.5927 109.211 29.3167C109.042 29.6059 108.772 30.0935 108.859 30.4315C109.159 31.6089 111.701 32.494 111.871 33.563C111.272 32.9985 108.956 31.4353 108.205 31.1892C107.986 31.6824 104.939 34.5664 104.342 34.9842L104.155 34.9535C104.107 35.1866 104.217 35.4086 104.294 35.6281L103.999 35.5113C103.947 35.3905 103.955 35.3362 103.825 35.2773L103.897 35.3735L103.807 35.4487C103.935 36.2068 103.777 36.943 103.842 37.7092C103.54 37.0389 103.32 36.315 103.07 35.6244C103.069 35.3201 103.077 35.0241 103.271 34.7657C103.41 34.5797 103.59 34.4565 103.83 34.4213L104.039 34.6759C104.058 34.6256 104.081 34.576 104.098 34.5251C104.532 33.2846 107.172 31.988 107.653 30.7307C107.02 30.4646 106.298 30.4249 105.647 30.1318C105.832 30.1391 106.017 30.1441 106.202 30.1468C106.587 30.15 106.778 30.1061 107.055 29.8459L107.03 29.6684C107.185 29.6964 107.252 29.7051 107.405 29.6512C107.857 29.1688 109.555 26.6982 109.631 26.1222C110.232 25.4798 111.791 22.8465 112.158 22.004C112.281 21.8742 112.352 21.7197 112.435 21.5655C112.713 21.2831 112.922 20.8721 113.06 20.5106Z" fill="#A6ABB6"/>
<path d="M113.06 20.5106L113.251 20.6124C113.802 20.508 114.194 19.8097 114.539 19.4246C114.711 19.2312 114.887 19.034 115.17 19.0088C115.398 19.1207 115.437 19.1721 115.581 19.3753C115.171 19.6159 112.802 21.5915 112.617 21.5952C112.555 21.5965 112.496 21.5754 112.435 21.5655C112.713 21.2831 112.922 20.8721 113.06 20.5106Z" fill="#E1EDF5"/>
<path d="M112.157 22.0039C112.453 22.0356 112.593 21.9507 112.828 21.7777C113.012 21.6417 113.118 21.4996 113.357 21.4667L113.451 21.6123L113.653 21.4644L113.754 21.5135C113.569 22.154 110.489 25.6653 109.821 26.0328C109.76 26.0664 109.696 26.0952 109.631 26.1221C110.231 25.4797 111.791 22.8464 112.157 22.0039Z" fill="url(#paint2_linear_1360_212)"/>
<path d="M104.342 34.984C104.938 34.5662 107.986 31.6822 108.205 31.189C108.955 31.4351 111.271 32.9983 111.87 33.5628C112.438 33.7763 118.484 37.6492 118.745 38.0314C118.983 38.151 119.266 38.2462 119.385 38.4871C118.36 38.5719 106.31 35.5017 104.342 34.984Z" fill="#AB2357"/>
<path d="M104.294 35.6277C104.217 35.4082 104.106 35.1862 104.155 34.9531L104.342 34.9838C106.311 35.5015 118.36 38.5717 119.385 38.4869C119.624 38.5648 119.837 38.6112 120 38.8047C119.716 38.981 119.243 38.9801 118.906 39.0173C117.109 39.1017 115.274 39.3903 113.485 39.5882C111.309 39.829 109.065 39.9928 106.918 40.3964L106.357 40.4524C106.159 40.4747 106.103 40.4902 105.914 40.4154C105.768 40.5906 105.624 40.7099 105.379 40.7381C105.261 40.7516 105.128 40.742 105.011 40.7235L104.528 39.6523C104.275 39.0088 104.04 38.3697 103.842 37.7088C103.777 36.9426 103.935 36.2063 103.807 35.4483L103.897 35.3731L103.824 35.2769C103.955 35.3358 103.947 35.3901 103.999 35.5109L104.294 35.6277Z" fill="#610C34"/>
<path d="M103.842 37.7092C103.777 36.9431 103.935 36.2068 103.807 35.4487L103.897 35.3735L103.824 35.2773C103.955 35.3363 103.947 35.3905 103.999 35.5113L104.294 35.6281C104.894 37.1598 105.542 38.823 105.914 40.4158C105.768 40.5911 105.624 40.7104 105.379 40.7385C105.261 40.752 105.128 40.7425 105.011 40.7239L104.528 39.6528C104.275 39.0093 104.04 38.3701 103.842 37.7092Z" fill="#B2BAC9"/>
<path d="M72.3174 40.6135C73.1239 41.3608 74.129 42.995 74.7714 43.9467L74.6903 43.9515C74.3882 43.6316 72.2365 40.731 72.2016 40.5577C72.1413 40.2586 72.3191 39.4137 72.0569 39.2109C71.5998 38.8574 70.3513 39.3318 69.8006 38.7848C69.7666 38.5623 69.7797 38.4802 69.9324 38.2903C70.5785 37.4865 72.8662 36.3959 73.8344 35.7842C76.1037 34.3505 78.3454 32.774 80.7119 31.4901C81.0645 31.2988 81.4371 31.13 81.8423 31.0704L81.8926 31.0633C81.9468 31.0551 81.9884 31.0451 82.0432 31.0481C82.3331 31.0639 85.4375 33.2168 85.7988 33.5552C86.4566 34.1715 87.28 34.6928 87.9853 35.2731C88.1741 35.1861 88.2699 34.9901 88.3891 34.8279C87.1149 33.9269 85.8846 32.9838 84.6247 32.0662C83.9579 31.5805 83.1146 31.0946 82.5344 30.5248C82.1531 30.1502 81.922 29.3845 81.649 28.9177C81.4245 28.5339 81.1325 28.1936 80.9133 27.8042C79.6105 25.4906 78.4162 22.9607 76.8259 20.817C76.398 20.2403 76.1138 19.5289 75.7583 18.9092C75.5747 18.5891 75.2967 18.3004 75.1537 17.9654C75.0833 17.8007 75.0867 17.7631 75.1212 17.5877L75.2906 17.5428C76.1996 17.7687 77.0771 18.1483 77.9568 18.4607L82.8374 20.1663C84.4995 20.7307 86.6926 21.2252 88.2307 21.9174C88.6114 22.0887 88.601 22.2547 88.8407 22.5399C89.2656 23.0455 89.0011 23.2534 89.1969 23.7532C89.332 23.5092 89.204 22.7935 89.3027 22.4357C89.368 22.1995 89.3822 22.0731 89.2396 21.8735C89.2524 21.6196 89.3717 21.4702 89.5601 21.2875C90.179 20.6874 90.8409 18.2944 91.1468 17.437C91.8923 15.3454 92.6622 13.2618 93.4568 11.1863C93.8084 10.2495 94.0858 9.21657 94.5301 8.32152C94.6257 8.12865 94.7305 7.96178 94.9254 7.84375L95.0515 7.88352C95.5293 8.59272 95.6249 9.49423 95.9969 10.2493C96.1472 10.5543 96.2047 10.5993 96.5387 10.7161C96.4339 10.9301 96.3522 11.1387 96.1639 11.3003L98.6465 17.7301C99.1521 19.0479 99.6178 20.4135 100.237 21.6868L99.9231 21.9606C100.343 21.9584 100.887 21.8944 101.281 22.0309L101.506 21.9093C101.657 22.5214 101.702 23.177 101.778 23.8021C102.01 24.885 102.332 26.0513 102.336 27.155C102.241 27.2269 102.189 27.2725 102.075 27.3155L101.966 27.5187C101.665 27.3996 101.383 27.2765 101.102 27.1202L100.521 27.9068L100.539 28.0327L100.748 28.3083C99.9401 28.9392 99.1017 29.5316 98.2327 30.0856C97.6269 30.4745 96.6667 30.8872 96.1852 31.3905C96.3197 31.4878 96.522 31.4926 96.6871 31.515L96.3773 31.6143C96.2928 31.9321 96.3782 32.2255 96.5257 32.5247C96.5461 32.7376 96.5702 32.9098 96.6686 33.1041L96.7317 33.1177C96.612 33.2874 96.4756 33.4468 96.432 33.6503L96.2529 33.2958L96.15 33.2963C96.1296 33.4722 96.1054 33.6457 96.1073 33.8228C95.7464 34.0855 95.0571 34.5301 94.9634 34.9664L94.7695 34.9163C94.5608 35.0465 94.4411 35.1666 94.3028 35.3635C93.3816 36.2079 92.6752 37.2189 91.6505 37.9648L91.554 37.4412L91.2922 37.3997C90.6788 36.6508 89.0299 36.1689 88.1126 35.6639L88.0989 35.6096L87.9706 35.5536C86.9333 35.9383 84.8873 36.0596 83.7069 36.242C80.5123 36.7486 77.3214 37.2756 74.1343 37.823C73.4733 37.942 70.4241 38.6333 70.0224 38.496C70.0021 38.489 69.9843 38.4771 69.9654 38.4677L69.8673 38.5987C70.2601 38.9666 71.7403 38.9942 72.3188 39.0806L72.3174 40.6135Z" fill="#DAECF6"/>
<path d="M88.508 22.5244C88.5514 23.0712 88.6541 23.6159 88.6761 24.1624C88.7229 25.3273 88.5973 27.7591 88.1397 28.811C87.9606 28.7106 87.8996 28.6517 87.6878 28.6566L87.6005 28.6666C86.0562 29.3696 84.1986 29.7582 82.559 30.2269C82.3989 30.049 82.2976 29.8002 82.1875 29.5913C83.8176 29.1422 85.6987 28.4459 87.3915 28.3004L87.3972 28.2495C87.8678 27.1303 88.1664 23.9531 88.508 22.5244Z" fill="#E1EDF5"/>
<path d="M87.6884 28.6565C87.9002 28.6516 87.9612 28.7105 88.1403 28.811L88.522 29.109L88.8452 29.2298L88.9399 29.1838C89.5208 29.9474 90.4979 30.4598 91.0307 31.2017C91.0172 31.3292 90.9716 31.4654 91.0368 31.5788C91.3716 32.161 91.3563 32.8327 91.7556 33.3915L91.8864 33.5164C91.3866 33.953 89.2066 33.9643 88.5575 34.6311C87.7227 34.3653 83.5753 30.9834 82.5596 30.2269C84.1992 29.7582 86.0568 29.3696 87.6011 28.6665L87.6884 28.6565Z" fill="#791643"/>
<path d="M88.5215 29.1094L88.8446 29.2302L88.9393 29.1842C89.5203 29.9477 90.4974 30.4602 91.0302 31.2021C91.0166 31.3295 90.9711 31.4658 91.0363 31.5791C91.371 32.1614 91.3558 32.833 91.7551 33.3919C90.273 32.5045 89.5679 30.4129 88.5215 29.1094Z" fill="#B2BAC9"/>
<path d="M87.6011 28.6667L87.6884 28.6567C88.7065 29.9557 89.654 31.279 90.6129 32.6166C88.2628 31.8723 84.9259 30.6062 82.5596 30.2271C84.1992 29.7584 86.0568 29.3698 87.6011 28.6667Z" fill="#AB2357"/>
<path d="M75.4502 17.9985C76.1248 18.4003 76.772 19.1444 77.3585 19.6649L84.4353 25.966C85.1933 26.6321 86.183 27.6964 87.0236 28.1938C87.1384 28.2618 87.2684 28.2528 87.3973 28.2497L87.3916 28.3006C85.6988 28.4461 83.8177 29.1424 82.1876 29.5914C80.0874 25.6512 77.6478 21.8871 75.4502 17.9985Z" fill="#BC3F6B"/>
<path d="M89.4781 21.4795C89.5551 21.5027 89.6879 21.5239 89.7533 21.5623C90.2034 21.8277 93.7408 25.6569 94.0145 26.1257C93.8568 26.5335 93.4486 26.7957 93.2287 27.1755C93.1814 29.1388 93.3902 31.092 93.4514 33.0517L93.1332 32.8548C92.3969 32.3635 91.715 31.7556 91.0303 31.2018C90.4975 30.4599 89.5204 29.9474 88.9395 29.1839L89.0555 28.9579C89.2028 26.4649 89.4299 23.9773 89.4781 21.4795Z" fill="#921F4D"/>
<path d="M91.375 27.854C92.0406 27.6913 92.6264 27.4871 93.2292 27.1758C93.1819 29.1391 93.3906 31.0923 93.4518 33.052L93.1336 32.8551C93.1345 32.0598 92.2445 30.6107 91.9475 29.7925C91.7182 29.1607 91.5506 28.5008 91.375 27.854Z" fill="#610C34"/>
<path d="M89.4782 21.4795C90.2242 23.4575 90.8625 25.7028 91.4095 27.7449C90.6319 28.0632 89.8474 28.7594 89.0557 28.9579C89.203 26.4649 89.4301 23.9773 89.4782 21.4795Z" fill="#BC3F6B"/>
<path d="M94.8204 8.09229C94.6961 12.6765 94.6358 17.2614 94.6395 21.8471C94.5124 23.0539 94.9429 24.7088 94.4196 25.8022C93.2767 25.1132 90.9155 22.4759 89.9873 21.4064C91.326 16.8982 93.4121 12.5801 94.8204 8.09229Z" fill="#BC3F6B"/>
<path d="M75.4504 17.9987L75.3623 17.842L75.4505 17.7954C77.3102 18.3509 79.136 19.1119 80.9755 19.7363C83.3213 20.5326 85.7355 21.2249 88.0571 22.0732C88.248 22.1429 88.3903 22.1796 88.5079 22.3461L88.5083 22.5248C88.1667 23.9535 87.8682 27.1306 87.3975 28.2499C87.2687 28.253 87.1386 28.262 87.0238 28.194C86.1832 27.6966 85.1935 26.6323 84.4355 25.9662L77.3588 19.6651C76.7723 19.1446 76.1251 18.4005 75.4504 17.9987Z" fill="#921F4D"/>
<path d="M81.8905 31.1299C82.6158 31.5574 83.2937 32.1007 83.9773 32.5897C85.3281 33.5561 86.6755 34.521 87.971 35.5535C86.9337 35.9382 84.8877 36.0594 83.7073 36.2419C80.5127 36.7484 77.3218 37.2754 74.1347 37.8228C73.4737 37.9418 70.4245 38.6331 70.0228 38.4958C70.0026 38.4889 69.9847 38.4769 69.9658 38.4675C71.0583 37.5615 72.7983 36.6524 74.0427 35.8772C76.6168 34.2733 79.191 32.5392 81.8905 31.1299Z" fill="#AB2357"/>
<path d="M94.8197 8.09229C95.3086 8.38685 95.8829 10.6647 96.164 11.3002L98.6466 17.73C99.1523 19.0477 99.618 20.4134 100.237 21.6867L99.9232 21.9605C98.5409 22.9276 97.166 23.9356 95.9117 25.05L95.1955 25.633C94.9496 25.7701 94.7539 25.9436 94.4533 25.8803L94.4189 25.8022C94.9422 24.7088 94.5117 23.0539 94.6388 21.8471C94.6351 17.2613 94.6954 12.6763 94.8197 8.09229Z" fill="#610C34"/>
<path d="M94.6388 21.8472C94.8336 22.7566 94.6982 23.8068 94.7622 24.7411C95.1463 24.8357 95.5396 24.919 95.9117 25.0501L95.1955 25.6331C94.9496 25.7702 94.7539 25.9437 94.4533 25.8804L94.4189 25.8023C94.9422 24.7089 94.5117 23.054 94.6388 21.8472Z" fill="#921F4D"/>
<path d="M101.282 22.0307L101.506 21.9092C101.658 22.5212 101.702 23.1769 101.778 23.802C102.011 24.8848 102.333 26.0511 102.337 27.1549C102.242 27.2268 102.189 27.2723 102.076 27.3153L101.967 27.5185C101.666 27.3994 101.384 27.2764 101.103 27.1201L100.522 27.9067L100.54 28.0326L100.749 28.3081C99.9408 28.939 99.1024 29.5315 98.2334 30.0854C97.6276 30.4744 96.6674 30.887 96.1859 31.3903C96.3205 31.4876 96.5227 31.4924 96.6878 31.5149L96.378 31.6141C96.2935 31.9319 96.3789 32.2253 96.5264 32.5245C96.5468 32.7375 96.5709 32.9096 96.6693 33.104L96.7324 33.1176C96.6127 33.2873 96.4763 33.4467 96.4327 33.6502L96.2537 33.2956L96.1507 33.2961C96.1303 33.472 96.1061 33.6455 96.108 33.8226C95.7471 34.0854 95.0578 34.53 94.9641 34.9662L94.7702 34.9162C94.5615 35.0464 94.4418 35.1665 94.3036 35.3633C93.3823 36.2077 92.6759 37.2187 91.6512 37.9647L91.5547 37.441L91.2929 37.3995C90.6796 36.6506 89.0306 36.1688 88.1133 35.6638L88.0996 35.6094C88.2402 35.4147 88.4097 35.2731 88.5948 35.1188C88.6635 34.885 88.6482 34.8609 88.5575 34.6311C89.2067 33.9643 91.3867 33.953 91.8864 33.5164L91.7557 33.3915C91.3564 32.8327 91.3716 32.161 91.0369 31.5788C90.9717 31.4654 91.0172 31.3292 91.0308 31.2017C91.7155 31.7555 92.3974 32.3634 93.1337 32.8547L93.4519 33.0516C93.3907 31.0919 93.1819 29.1387 93.2292 27.1754C93.4491 26.7956 93.8573 26.5334 94.015 26.1256L94.0809 26.1557C94.1987 26.1742 94.2637 26.1556 94.3769 26.1192L94.4538 25.8803C94.7544 25.9436 94.9502 25.7701 95.196 25.6329L95.9122 25.05C97.1665 23.9356 98.5414 22.9276 99.9238 21.9605C100.344 21.9582 100.888 21.8943 101.282 22.0307Z" fill="url(#paint3_linear_1360_212)"/>
<path d="M95.1962 25.6333C95.0311 25.8691 94.9383 25.9261 94.9884 26.2162C95.1897 26.4256 95.4207 26.5804 95.6628 26.7447C95.0394 27.9729 94.9513 29.4593 94.6303 30.777C94.428 29.4971 94.9355 28.1123 94.6117 26.857C94.5301 26.5437 94.3835 26.4054 94.0987 26.2399L94.0811 26.1561C94.1989 26.1745 94.2638 26.1559 94.377 26.1195L94.454 25.8806C94.7546 25.9439 94.9503 25.7704 95.1962 25.6333Z" fill="#E1EDF5"/>
<path d="M94.0144 26.126L94.0803 26.1561L94.0979 26.24C94.8512 27.7798 94.4309 30.4897 93.8186 32.0507C93.6869 32.3872 93.531 32.699 93.4513 33.052C93.39 31.0923 93.1813 29.1391 93.2286 27.1758C93.4485 26.796 93.8567 26.5338 94.0144 26.126Z" fill="#9E99A8"/>
<path d="M96.1198 26.4248L97.4177 26.7624C97.3305 27.4193 97.3194 28.486 96.9668 29.0431C96.2052 29.5157 95.4908 30.6108 95.001 31.3393C94.8191 31.2996 94.77 31.2981 94.6308 31.1728L94.6299 30.777C94.9509 29.4593 95.039 27.9729 95.6625 26.7447L96.1198 26.4248Z" fill="#610C34"/>
<path d="M100.54 28.0327L100.749 28.3083C99.9409 28.9392 99.1025 29.5316 98.2335 30.0856C97.6277 30.4745 96.6675 30.8872 96.186 31.3904C96.3206 31.4878 96.5228 31.4926 96.6879 31.515L96.3781 31.6143C96.2936 31.9321 96.379 32.2254 96.5265 32.5247C96.5469 32.7376 96.571 32.9097 96.6694 33.1041L96.4124 33.003C96.2213 32.6394 96.3103 32.4186 96.2037 32.0508L96.0469 32.1545C95.6906 32.11 95.2166 31.9767 94.9336 31.7629C94.9457 31.6175 94.9688 31.4816 95.0013 31.3391C95.4912 30.6106 96.2055 29.5155 96.9672 29.0429C98.1621 28.719 99.353 28.3822 100.54 28.0327Z" fill="#E1EDF5"/>
<path d="M88.5948 35.1191C90.3965 34.9886 92.3775 34.6571 94.1384 34.2617C93.7488 34.8336 92.3098 37.1244 91.8314 37.3773C91.7677 37.411 91.6299 37.4239 91.5547 37.4413L91.2929 37.3998C90.6795 36.6509 89.0306 36.1691 88.1133 35.6641L88.0996 35.6097C88.2402 35.415 88.4097 35.2734 88.5948 35.1191Z" fill="#791643"/>
<path d="M101.282 22.0307L101.506 21.9092C101.658 22.5212 101.702 23.1769 101.778 23.802C102.011 24.8848 102.333 26.0511 102.337 27.1549C102.242 27.2268 102.189 27.2723 102.076 27.3153L101.967 27.5185C101.666 27.3994 101.384 27.2764 101.103 27.1201L100.522 27.9067L100.54 28.0326C99.3529 28.3821 98.162 28.7188 96.967 29.0427C97.3196 28.4857 97.3307 27.4189 97.4179 26.7621L96.12 26.4245L95.6627 26.7444C95.4205 26.5801 95.1895 26.4252 94.9882 26.2158C94.9381 25.9258 95.0309 25.8687 95.196 25.6329L95.9122 25.05C97.1665 23.9356 98.5414 22.9276 99.9237 21.9605C100.344 21.9582 100.888 21.8943 101.282 22.0307Z" fill="#921F4D"/>
<path d="M101.282 22.0307L101.507 21.9092C101.658 22.5212 101.702 23.1769 101.778 23.802C102.011 24.8848 102.333 26.0511 102.337 27.1549C102.242 27.2268 102.189 27.2723 102.076 27.3153L101.967 27.5185C101.666 27.3994 101.384 27.2764 101.103 27.1201L100.522 27.9067C100.223 26.6191 100.939 23.6608 101.129 22.2551L101.282 22.0307Z" fill="#610C34"/>
<path d="M99.9237 21.9608C100.344 21.9585 100.888 21.8946 101.282 22.031L101.129 22.2554C99.4515 23.637 97.7819 25.0268 96.12 26.4248L95.6627 26.7447C95.4205 26.5804 95.1895 26.4256 94.9882 26.2161C94.9381 25.9261 95.0309 25.869 95.196 25.6332L95.9122 25.0503C97.1665 23.9359 98.5414 22.9279 99.9237 21.9608Z" fill="#E1EDF5"/>
</g>
<defs>
<linearGradient id="paint0_linear_1360_212" x1="196.24" y1="67.7107" x2="-5.57275" y2="29.2152" gradientUnits="userSpaceOnUse">
<stop stop-color="#D6ECF5"/>
<stop offset="1" stop-color="#FDFFFF"/>
</linearGradient>
<linearGradient id="paint1_linear_1360_212" x1="98.7792" y1="30.8534" x2="99.972" y2="34.1488" gradientUnits="userSpaceOnUse">
<stop stop-color="#DDE5F4"/>
<stop offset="1" stop-color="#FBFFFF"/>
</linearGradient>
<linearGradient id="paint2_linear_1360_212" x1="111.814" y1="22.3407" x2="113.251" y2="22.1808" gradientUnits="userSpaceOnUse">
<stop stop-color="#8E8693"/>
<stop offset="1" stop-color="#A2A0AE"/>
</linearGradient>
<linearGradient id="paint3_linear_1360_212" x1="90.4508" y1="32.2811" x2="95.056" y2="34.8278" gradientUnits="userSpaceOnUse">
<stop stop-color="#AEB5C6"/>
<stop offset="1" stop-color="#DEEBF5"/>
</linearGradient>
<clipPath id="clip0_1360_212">
<rect width="190" height="101" fill="white"/>
</clipPath>
</defs>
</svg>
