<svg width="32" height="30" viewBox="0 0 32 30" fill="none" xmlns="http://www.w3.org/2000/svg">
<path d="M30 12.6279L16.3398 25.654C14.7644 27.1561 12.6279 28 10.4 28C8.1722 28 6.03562 27.1561 4.46031 25.654C2.885 24.1521 2 22.1148 2 19.9905C2 17.8663 2.885 15.8291 4.46031 14.327L15.6802 3.6301C16.1968 3.12013 16.8146 2.71335 17.498 2.43351C18.1812 2.15366 18.916 2.00636 19.6596 2.0002C20.4031 1.99404 21.1405 2.12914 21.8288 2.39762C22.5169 2.6661 23.1421 3.06258 23.668 3.56393C24.1938 4.06527 24.6096 4.66145 24.8912 5.31766C25.1727 5.97387 25.3144 6.67698 25.308 7.38597C25.3015 8.09496 25.1471 8.79562 24.8535 9.44706C24.5601 10.0985 24.1335 10.6877 23.5986 11.1803L12.3799 21.8831C11.8519 22.3696 11.1447 22.6387 10.4105 22.6328C9.67639 22.6268 8.97407 22.3461 8.45484 21.8512C7.93562 21.3563 7.64104 20.6867 7.63454 19.9867C7.62805 19.2866 7.91016 18.6123 8.42012 18.1086L19.64 7.40696" stroke="#9D0932" stroke-width="3" stroke-linecap="round" stroke-linejoin="round"/>
</svg>
